G04 DipTrace 4.3.0.1*
G04 2 - Bottom.gbr*
%MOMM*%
G04 #@! TF.FileFunction,Copper,L2,Bot*
G04 #@! TF.Part,Single*
G04 #@! TA.AperFunction,Conductor*
%ADD15C,0.5*%
G04 #@! TA.AperFunction,ComponentPad*
%ADD18O,2.54X1.5*%
%ADD19C,1.65*%
%ADD20R,1.5X1.5*%
%ADD21C,1.5*%
%ADD23C,8.4*%
%ADD24C,2.0*%
%ADD25C,1.27*%
%ADD26C,1.27*%
%ADD27R,3.0X3.0*%
%ADD28C,3.0*%
%ADD29C,0.75*%
%ADD30C,2.2*%
%ADD31O,5.0X2.5*%
%ADD32C,1.905*%
%ADD33C,2.54*%
%FSLAX35Y35*%
G04*
G71*
G90*
G75*
G01*
G04 Bottom*
%LPD*%
X744000Y385500D2*
D15*
Y258500D1*
X871000Y131500D1*
X1379000D1*
X1887000Y639500D1*
X744000Y-1456000D2*
Y-1583000D1*
X871000Y-1710000D1*
X1379000D1*
X1887000Y-1202000D1*
X744000Y-3297500D2*
Y-3424500D1*
X871000Y-3551500D1*
X1379000D1*
X1887000Y-3043500D1*
X744000Y2227000D2*
Y2100000D1*
X871000Y1973000D1*
X1315500D1*
X1823500Y2481000D1*
X3238500Y3238500D2*
X3048000Y3048000D1*
Y2730500D1*
X2794000Y2476500D1*
X1828000D1*
X1823500Y2481000D1*
X998000Y385500D2*
X1252000Y639500D1*
X1563500D1*
X1569500Y645500D1*
X998000Y2227000D2*
X1252000Y2481000D1*
X1563500D1*
X1569500Y2487000D1*
X998000Y-3297500D2*
X1252000Y-3043500D1*
X1563500D1*
X1569500Y-3037500D1*
X998000Y-1456000D2*
X1252000Y-1202000D1*
X1563500D1*
X1569500Y-1196000D1*
X4191000Y1524000D2*
X4318000D1*
X4445000Y1651000D1*
Y1905000D1*
X4318000Y2032000D1*
X4191000D1*
X4318000D2*
X4445000Y2159000D1*
Y2413000D1*
X4318000Y2540000D1*
X4191000D1*
X1252000Y2481000D2*
X1274500D1*
X1524000Y2730500D1*
X2476500D1*
X4318000Y1524000D2*
X4445000Y1397000D1*
Y1143000D1*
X4318000Y1016000D1*
X4191000D1*
X2540000Y-1587500D2*
Y-1714500D1*
X1569500Y-2685000D1*
Y-3037500D1*
X-2901500Y3365500D2*
Y3078500D1*
X-2240500Y2417500D1*
X-1986500Y2671500D1*
X-1401500D1*
X-1211000Y2481000D1*
X163250D1*
X353750Y2671500D1*
X363000D1*
X744000Y2989000D2*
X998000D1*
X1252000D1*
X363000Y2671500D2*
X426500D1*
X744000Y2989000D1*
X-2921000Y2667000D2*
X-2490000D1*
X-2240500Y2417500D1*
X-2901500Y-2159000D2*
Y-2446000D1*
X-2240500Y-3107000D1*
X-1986500Y-2853000D1*
X-1401500D1*
X-1211000Y-3043500D1*
X179127D1*
X363000Y-2859627D1*
Y-2853000D1*
X744000Y-2535500D2*
X998000D1*
X1252000D1*
X363000Y-2853000D2*
X426500D1*
X744000Y-2535500D1*
X-2921000Y-2857500D2*
X-2490000D1*
X-2240500Y-3107000D1*
X-2901500Y-317500D2*
Y-604500D1*
X-2240500Y-1265500D1*
X-1986500Y-1011500D1*
X-1401500D1*
X-1211000Y-1202000D1*
X210877D1*
X363000Y-1049877D1*
Y-1011500D1*
X744000Y-694000D2*
X998000D1*
X1252000D1*
X363000Y-1011500D2*
X426500D1*
X744000Y-694000D1*
X-2921000Y-1016000D2*
X-2490000D1*
X-2240500Y-1265500D1*
X-2901500Y1524000D2*
Y1237000D1*
X-2240500Y576000D1*
X-1986500Y830000D1*
X-1401500D1*
X-1211000Y639500D1*
X179127D1*
X363000Y823373D1*
Y830000D1*
X744000Y1147500D2*
X998000D1*
X1252000D1*
X363000Y830000D2*
X401377D1*
X718877Y1147500D1*
X744000D1*
X-2921000Y825500D2*
X-2490000D1*
X-2240500Y576000D1*
Y3179500D2*
X-1986500Y2925500D1*
X-1392500D1*
X-1202000Y3116000D1*
X154250D1*
X344750Y2925500D1*
X363000D1*
X1569500Y3497000D2*
X1817500D1*
X1823500Y3491000D1*
X363000Y2925500D2*
Y2989000D1*
X676000Y3302000D1*
X1524000D1*
X1569500Y3347500D1*
Y3497000D1*
X-2240500Y1338000D2*
X-1986500Y1084000D1*
X-1392500D1*
X-1202000Y1274500D1*
X172500D1*
X363000Y1084000D1*
X1569500Y1655500D2*
X1881000D1*
X1887000Y1649500D1*
X363000Y1084000D2*
X369627D1*
X941127Y1655500D1*
X1569500D1*
X1887000Y1649500D2*
Y1651000D1*
X2476500D1*
X-2240500Y-503500D2*
X-1986500Y-757500D1*
X-1392500D1*
X-1202000Y-567000D1*
X172500D1*
X363000Y-757500D1*
X1569500Y-186000D2*
X1881000D1*
X1887000Y-192000D1*
X363000Y-757500D2*
Y-694000D1*
X871000Y-186000D1*
X1569500D1*
X1887000Y-192000D2*
X1903500D1*
X2222500Y127000D1*
X2540000D1*
X-2240500Y-2345000D2*
X-1986500Y-2599000D1*
X-1392500D1*
X-1202000Y-2408500D1*
X172500D1*
X363000Y-2599000D1*
X1569500Y-2027500D2*
X1887000D1*
Y-2033500D1*
X363000Y-2599000D2*
Y-2535500D1*
X871000Y-2027500D1*
X1569500D1*
X1887000Y-2033500D2*
Y-1732500D1*
X2286000Y-1333500D1*
X2540000D1*
D18*
X4191000Y2794000D3*
Y2286000D3*
Y1778000D3*
D19*
X1252000Y2481000D3*
Y2989000D3*
D20*
X1823500Y2481000D3*
D21*
Y3491000D3*
D20*
X1569500Y3497000D3*
D21*
Y2487000D3*
D23*
X4445000Y-4445000D3*
D24*
X-1986500Y2925500D3*
Y2671500D3*
X363000Y2925500D3*
Y2671500D3*
D25*
X-2240500Y3179500D3*
D26*
Y2417500D3*
D25*
X744000Y2227000D3*
D26*
Y2989000D3*
D25*
X998000D3*
D26*
Y2227000D3*
D27*
X-4381500Y3365500D3*
D28*
X-2901500D3*
X-4591500Y2245500D3*
X-2681500D3*
D29*
X4445000Y-3937000D3*
D19*
X1252000Y639500D3*
Y1147500D3*
D20*
X1887000Y639500D3*
D21*
Y1649500D3*
D20*
X1569500Y1655500D3*
D21*
Y645500D3*
D24*
X-1986500Y1084000D3*
Y830000D3*
X363000Y1084000D3*
Y830000D3*
D25*
X-2240500Y1338000D3*
D26*
Y576000D3*
D25*
X744000Y385500D3*
D26*
Y1147500D3*
D25*
X998000D3*
D26*
Y385500D3*
D27*
X-4381500Y1524000D3*
D28*
X-2901500D3*
X-4591500Y404000D3*
X-2681500D3*
D19*
X1252000Y-1202000D3*
Y-694000D3*
D20*
X1887000Y-1202000D3*
D21*
Y-192000D3*
D20*
X1569500Y-186000D3*
D21*
Y-1196000D3*
D24*
X-1986500Y-757500D3*
Y-1011500D3*
X363000Y-757500D3*
Y-1011500D3*
D25*
X-2240500Y-503500D3*
D26*
Y-1265500D3*
D25*
X744000Y-1456000D3*
D26*
Y-694000D3*
D25*
X998000D3*
D26*
Y-1456000D3*
D27*
X-4381500Y-317500D3*
D28*
X-2901500D3*
X-4591500Y-1437500D3*
X-2681500D3*
D19*
X1252000Y-3043500D3*
Y-2535500D3*
D20*
X1887000Y-3043500D3*
D21*
Y-2033500D3*
D20*
X1569500Y-2027500D3*
D21*
Y-3037500D3*
D24*
X-1986500Y-2599000D3*
Y-2853000D3*
X363000Y-2599000D3*
Y-2853000D3*
D25*
X-2240500Y-2345000D3*
D26*
Y-3107000D3*
D25*
X744000Y-3297500D3*
D26*
Y-2535500D3*
D25*
X998000D3*
D26*
Y-3297500D3*
D27*
X-4381500Y-2159000D3*
D28*
X-2901500D3*
X-4591500Y-3279000D3*
X-2681500D3*
D18*
X4191000Y1270000D3*
D30*
X-2921000Y2667000D3*
X-4121000D3*
X-2921000Y825500D3*
X-4121000D3*
D31*
X2460627Y-2317750D3*
Y-2817750D3*
D30*
X-2921000Y-1016000D3*
X-4121000D3*
X-2921000Y-2857500D3*
X-4121000D3*
D32*
X4445000Y-3556000D3*
X4191000Y2540000D3*
Y2032000D3*
Y1524000D3*
Y1016000D3*
D20*
X2476500Y3492500D3*
D21*
Y3238500D3*
Y2984500D3*
Y2730500D3*
X3238500D3*
Y2984500D3*
Y3238500D3*
Y3492500D3*
D25*
X2857500Y3429000D3*
D26*
Y2794000D3*
D20*
X2476500Y2159000D3*
D21*
Y1905000D3*
Y1651000D3*
Y1397000D3*
X3238500D3*
Y1651000D3*
Y1905000D3*
Y2159000D3*
D25*
X2857500Y2095500D3*
D26*
Y1460500D3*
D20*
X2540000Y635000D3*
D21*
Y381000D3*
Y127000D3*
Y-127000D3*
X3302000D3*
Y127000D3*
Y381000D3*
Y635000D3*
D25*
X2921000Y571500D3*
D26*
Y-63500D3*
D20*
X2540000Y-825500D3*
D21*
Y-1079500D3*
Y-1333500D3*
Y-1587500D3*
X3302000D3*
Y-1333500D3*
Y-1079500D3*
Y-825500D3*
D25*
X2921000Y-889000D3*
D26*
Y-1524000D3*
D33*
X-2032000Y2286000D3*
X381000Y2163500D3*
X-2032000Y444500D3*
X381000Y322000D3*
X-2032000Y-1397000D3*
X381000Y-1523500D3*
X-2032000Y-3238500D3*
X363000Y-3361000D3*
D31*
X2476500Y-3317877D3*
M02*
