G04 DipTrace 4.3.0.1*
G04 BoardOutline.gbr*
%MOMM*%
G04 #@! TF.FileFunction,Profile*
G04 #@! TF.Part,Single*
%ADD12C,0.14*%
%FSLAX35Y35*%
G04*
G71*
G90*
G75*
G01*
G04 BoardOutline*
%LPD*%
X-5000000Y5000000D2*
D12*
X5000000D1*
Y-5000000D1*
X-5000000D1*
Y5000000D1*
X-4145500Y3751000D2*
X-2939000D1*
Y3687500D1*
X-4145500D1*
Y3751000D1*
X-2875500D2*
X-1732500D1*
Y3687500D1*
X-2875500D1*
Y3751000D1*
X-4907500D2*
X-4209000D1*
Y3687500D1*
X-4907500D1*
Y3751000D1*
X-4145500Y1909500D2*
X-2939000D1*
Y1846000D1*
X-4145500D1*
Y1909500D1*
X-1161000Y3020750D2*
X-1097500D1*
Y2576250D1*
X-1161000D1*
Y3020750D1*
Y2385750D2*
X-1097500D1*
Y1973000D1*
X-1161000D1*
Y2385750D1*
Y3624000D2*
X-1097500D1*
Y3211250D1*
X-1161000D1*
Y3624000D1*
X-4145500Y68000D2*
X-2939000D1*
Y4500D1*
X-4145500D1*
Y68000D1*
X-1161000Y1179250D2*
X-1097500D1*
Y734750D1*
X-1161000D1*
Y1179250D1*
Y544250D2*
X-1097500D1*
Y131500D1*
X-1161000D1*
Y544250D1*
Y1782500D2*
X-1097500D1*
Y1369750D1*
X-1161000D1*
Y1782500D1*
X-2875500Y1909500D2*
X-1732500D1*
Y1846000D1*
X-2875500D1*
Y1909500D1*
Y68000D2*
X-1732500D1*
Y4500D1*
X-2875500D1*
Y68000D1*
X-4907500Y1909500D2*
X-4209000D1*
Y1846000D1*
X-4907500D1*
Y1909500D1*
Y68000D2*
X-4209000D1*
Y4500D1*
X-4907500D1*
Y68000D1*
X-4145500Y-1773500D2*
X-2939000D1*
Y-1837000D1*
X-4145500D1*
Y-1773500D1*
X-1161000Y-662250D2*
X-1097500D1*
Y-1106750D1*
X-1161000D1*
Y-662250D1*
Y-1297250D2*
X-1097500D1*
Y-1710000D1*
X-1161000D1*
Y-1297250D1*
Y-59000D2*
X-1097500D1*
Y-471750D1*
X-1161000D1*
Y-59000D1*
X-2875500Y-1773500D2*
X-1732500D1*
Y-1837000D1*
X-2875500D1*
Y-1773500D1*
X-4907500D2*
X-4209000D1*
Y-1837000D1*
X-4907500D1*
Y-1773500D1*
X-4145500Y-3615000D2*
X-2939000D1*
Y-3678500D1*
X-4145500D1*
Y-3615000D1*
X-1161000Y-2503750D2*
X-1097500D1*
Y-2948250D1*
X-1161000D1*
Y-2503750D1*
Y-3138750D2*
X-1097500D1*
Y-3551500D1*
X-1161000D1*
Y-3138750D1*
Y-1900500D2*
X-1097500D1*
Y-2313250D1*
X-1161000D1*
Y-1900500D1*
X-2875500Y-3615000D2*
X-1732500D1*
Y-3678500D1*
X-2875500D1*
Y-3615000D1*
X-4907500D2*
X-4209000D1*
Y-3678500D1*
X-4907500D1*
Y-3615000D1*
X-1016000Y2190750D2*
X127000D1*
Y2131750D1*
X-1016000D1*
Y2190750D1*
X77250Y1179250D2*
X140750D1*
Y734750D1*
X77250D1*
Y1179250D1*
Y544250D2*
X140750D1*
Y31750D1*
X77250D1*
Y544250D1*
Y2063750D2*
X140750D1*
Y1369750D1*
X77250D1*
Y2063750D1*
Y-662250D2*
X140750D1*
Y-1106750D1*
X77250D1*
Y-662250D1*
Y-1297250D2*
X140750D1*
Y-2063750D1*
X77250D1*
Y-1297250D1*
Y-31750D2*
X140750D1*
Y-471750D1*
X77250D1*
Y-31750D1*
X-1016000Y-2122750D2*
X127000D1*
Y-2190750D1*
X-1016000D1*
Y-2122750D1*
X-1669000Y3751000D2*
X-1095373D1*
Y3687500D1*
X-1669000D1*
Y3751000D1*
Y1909500D2*
X-1095373D1*
Y1846000D1*
X-1669000D1*
Y1909500D1*
Y68000D2*
X-1095373D1*
Y4500D1*
X-1669000D1*
Y68000D1*
Y-1773500D2*
X-1095373D1*
Y-1837000D1*
X-1669000D1*
Y-1773500D1*
Y-3615000D2*
X-1095373D1*
Y-3678500D1*
X-1669000D1*
Y-3615000D1*
M02*
