G04 DipTrace 4.3.0.1*
G04 BottomSilk.gbr*
%MOMM*%
G04 #@! TF.FileFunction,Legend,Bot*
G04 #@! TF.Part,Single*
%ADD17C,1.0*%
%ADD74C,0.31373*%
%FSLAX35Y35*%
G04*
G71*
G90*
G75*
G01*
G04 BotSilk*
%LPD*%
X2110627Y-2567750D2*
D17*
X2810627D1*
X2126500Y-3067877D2*
X2826500D1*
X-3598150Y3186858D2*
D74*
X-3617467Y3196517D1*
X-3637008Y3216058D1*
X-3646667Y3235375D1*
Y3274234D1*
X-3637008Y3293775D1*
X-3617467Y3313092D1*
X-3598150Y3322975D1*
X-3568950Y3332634D1*
X-3520208D1*
X-3491233Y3322975D1*
X-3471691Y3313092D1*
X-3452374Y3293775D1*
X-3442491Y3274234D1*
Y3235375D1*
X-3452374Y3216058D1*
X-3471691Y3196517D1*
X-3491233Y3186858D1*
X-3646667Y3124113D2*
X-3442491D1*
X-3539750D2*
X-3568950Y3094913D1*
X-3578608Y3075372D1*
Y3046172D1*
X-3568950Y3026855D1*
X-3539750Y3017196D1*
X-3442491D1*
X-3578608Y2837876D2*
X-3442491D1*
X-3549408D2*
X-3568950Y2857193D1*
X-3578608Y2876734D1*
Y2905710D1*
X-3568950Y2925251D1*
X-3549408Y2944568D1*
X-3520208Y2954451D1*
X-3500891D1*
X-3471691Y2944568D1*
X-3452374Y2925251D1*
X-3442491Y2905710D1*
Y2876734D1*
X-3452374Y2857193D1*
X-3471691Y2837876D1*
X-3578608Y2775131D2*
X-3442491D1*
X-3539750D2*
X-3568950Y2745931D1*
X-3578608Y2726389D1*
Y2697414D1*
X-3568950Y2677872D1*
X-3539750Y2668214D1*
X-3442491D1*
X-3607583Y2407954D2*
X-3617467Y2388413D1*
X-3646442Y2359213D1*
X-3442491D1*
X-3598150Y1369234D2*
X-3617467Y1378892D1*
X-3637008Y1398434D1*
X-3646667Y1417751D1*
Y1456609D1*
X-3637008Y1476151D1*
X-3617467Y1495468D1*
X-3598150Y1505351D1*
X-3568950Y1515009D1*
X-3520208D1*
X-3491233Y1505351D1*
X-3471691Y1495468D1*
X-3452374Y1476151D1*
X-3442491Y1456609D1*
Y1417751D1*
X-3452374Y1398434D1*
X-3471691Y1378892D1*
X-3491233Y1369234D1*
X-3646667Y1306489D2*
X-3442491D1*
X-3539750D2*
X-3568950Y1277289D1*
X-3578608Y1257747D1*
Y1228547D1*
X-3568950Y1209230D1*
X-3539750Y1199572D1*
X-3442491D1*
X-3578608Y1020251D2*
X-3442491D1*
X-3549408D2*
X-3568950Y1039568D1*
X-3578608Y1059110D1*
Y1088085D1*
X-3568950Y1107627D1*
X-3549408Y1126944D1*
X-3520208Y1136827D1*
X-3500891D1*
X-3471691Y1126944D1*
X-3452374Y1107627D1*
X-3442491Y1088085D1*
Y1059110D1*
X-3452374Y1039568D1*
X-3471691Y1020251D1*
X-3578608Y957506D2*
X-3442491D1*
X-3539750D2*
X-3568950Y928306D1*
X-3578608Y908765D1*
Y879789D1*
X-3568950Y860248D1*
X-3539750Y850589D1*
X-3442491D1*
X-3597925Y580447D2*
X-3607583D1*
X-3627125Y570788D1*
X-3636783Y561130D1*
X-3646442Y541588D1*
Y502730D1*
X-3636783Y483413D1*
X-3627125Y473754D1*
X-3607583Y463871D1*
X-3588267D1*
X-3568725Y473754D1*
X-3539750Y493071D1*
X-3442491Y590330D1*
Y454213D1*
X-3629900Y-472266D2*
X-3649217Y-462608D1*
X-3668758Y-443066D1*
X-3678417Y-423749D1*
Y-384891D1*
X-3668758Y-365349D1*
X-3649217Y-346032D1*
X-3629900Y-336149D1*
X-3600700Y-326491D1*
X-3551958D1*
X-3522983Y-336149D1*
X-3503441Y-346032D1*
X-3484124Y-365349D1*
X-3474241Y-384891D1*
Y-423749D1*
X-3484124Y-443066D1*
X-3503441Y-462608D1*
X-3522983Y-472266D1*
X-3678417Y-535011D2*
X-3474241D1*
X-3571500D2*
X-3600700Y-564211D1*
X-3610358Y-583753D1*
Y-612953D1*
X-3600700Y-632270D1*
X-3571500Y-641928D1*
X-3474241D1*
X-3610358Y-821249D2*
X-3474241D1*
X-3581158D2*
X-3600700Y-801932D1*
X-3610358Y-782390D1*
Y-753415D1*
X-3600700Y-733873D1*
X-3581158Y-714556D1*
X-3551958Y-704673D1*
X-3532641D1*
X-3503441Y-714556D1*
X-3484124Y-733873D1*
X-3474241Y-753415D1*
Y-782390D1*
X-3484124Y-801932D1*
X-3503441Y-821249D1*
X-3610358Y-883994D2*
X-3474241D1*
X-3571500D2*
X-3600700Y-913194D1*
X-3610358Y-932735D1*
Y-961711D1*
X-3600700Y-981252D1*
X-3571500Y-990911D1*
X-3474241D1*
X-3678192Y-1270712D2*
Y-1377404D1*
X-3600475Y-1319229D1*
Y-1348429D1*
X-3590817Y-1367746D1*
X-3581158Y-1377404D1*
X-3551958Y-1387287D1*
X-3532641D1*
X-3503441Y-1377404D1*
X-3483900Y-1358087D1*
X-3474241Y-1328887D1*
Y-1299687D1*
X-3483900Y-1270712D1*
X-3493783Y-1261053D1*
X-3513100Y-1251170D1*
X-3629900Y-2240608D2*
X-3649217Y-2230949D1*
X-3668758Y-2211408D1*
X-3678417Y-2192091D1*
Y-2153232D1*
X-3668758Y-2133691D1*
X-3649217Y-2114374D1*
X-3629900Y-2104491D1*
X-3600700Y-2094832D1*
X-3551958D1*
X-3522983Y-2104491D1*
X-3503441Y-2114374D1*
X-3484124Y-2133691D1*
X-3474241Y-2153232D1*
Y-2192091D1*
X-3484124Y-2211408D1*
X-3503441Y-2230949D1*
X-3522983Y-2240608D1*
X-3678417Y-2303353D2*
X-3474241D1*
X-3571500D2*
X-3600700Y-2332553D1*
X-3610358Y-2352094D1*
Y-2381294D1*
X-3600700Y-2400611D1*
X-3571500Y-2410270D1*
X-3474241D1*
X-3610358Y-2589590D2*
X-3474241D1*
X-3581158D2*
X-3600700Y-2570273D1*
X-3610358Y-2550732D1*
Y-2521756D1*
X-3600700Y-2502215D1*
X-3581158Y-2482898D1*
X-3551958Y-2473015D1*
X-3532641D1*
X-3503441Y-2482898D1*
X-3484124Y-2502215D1*
X-3474241Y-2521756D1*
Y-2550732D1*
X-3484124Y-2570273D1*
X-3503441Y-2589590D1*
X-3610358Y-2652335D2*
X-3474241D1*
X-3571500D2*
X-3600700Y-2681535D1*
X-3610358Y-2701077D1*
Y-2730052D1*
X-3600700Y-2749594D1*
X-3571500Y-2759252D1*
X-3474241D1*
Y-3116770D2*
X-3678192D1*
X-3542300Y-3019512D1*
Y-3165287D1*
M02*
