G04 DipTrace 4.3.0.1*
G04 BottomPaste.gbr*
%MOMM*%
G04 #@! TF.FileFunction,Paste,Bot*
G04 #@! TF.Part,Single*
%ADD24C,2.0*%
%ADD43C,2.34*%
%ADD45C,1.705*%
%ADD47O,4.8X2.3*%
%ADD50C,0.55*%
%ADD52C,2.8*%
%ADD54R,2.8X2.8*%
%ADD56C,1.07*%
%ADD58C,1.07*%
%ADD59C,1.8*%
%ADD61C,8.2*%
%ADD63C,1.3*%
%ADD65R,1.3X1.3*%
%ADD67C,1.45*%
%ADD69O,2.34X1.3*%
%FSLAX35Y35*%
G04*
G71*
G90*
G75*
G01*
G04 BotPaste*
%LPD*%
D69*
X4191000Y2794000D3*
Y2286000D3*
Y1778000D3*
D67*
X1252000Y2481000D3*
Y2989000D3*
D65*
X1823500Y2481000D3*
D63*
Y3491000D3*
D65*
X1569500Y3497000D3*
D63*
Y2487000D3*
D61*
X4445000Y-4445000D3*
D59*
X-1986500Y2925500D3*
Y2671500D3*
X363000Y2925500D3*
Y2671500D3*
D58*
X-2240500Y3179500D3*
D56*
Y2417500D3*
D58*
X744000Y2227000D3*
D56*
Y2989000D3*
D58*
X998000D3*
D56*
Y2227000D3*
D54*
X-4381500Y3365500D3*
D52*
X-2901500D3*
X-4591500Y2245500D3*
X-2681500D3*
D50*
X4445000Y-3937000D3*
D67*
X1252000Y639500D3*
Y1147500D3*
D65*
X1887000Y639500D3*
D63*
Y1649500D3*
D65*
X1569500Y1655500D3*
D63*
Y645500D3*
D59*
X-1986500Y1084000D3*
Y830000D3*
X363000Y1084000D3*
Y830000D3*
D58*
X-2240500Y1338000D3*
D56*
Y576000D3*
D58*
X744000Y385500D3*
D56*
Y1147500D3*
D58*
X998000D3*
D56*
Y385500D3*
D54*
X-4381500Y1524000D3*
D52*
X-2901500D3*
X-4591500Y404000D3*
X-2681500D3*
D67*
X1252000Y-1202000D3*
Y-694000D3*
D65*
X1887000Y-1202000D3*
D63*
Y-192000D3*
D65*
X1569500Y-186000D3*
D63*
Y-1196000D3*
D59*
X-1986500Y-757500D3*
Y-1011500D3*
X363000Y-757500D3*
Y-1011500D3*
D58*
X-2240500Y-503500D3*
D56*
Y-1265500D3*
D58*
X744000Y-1456000D3*
D56*
Y-694000D3*
D58*
X998000D3*
D56*
Y-1456000D3*
D54*
X-4381500Y-317500D3*
D52*
X-2901500D3*
X-4591500Y-1437500D3*
X-2681500D3*
D67*
X1252000Y-3043500D3*
Y-2535500D3*
D65*
X1887000Y-3043500D3*
D63*
Y-2033500D3*
D65*
X1569500Y-2027500D3*
D63*
Y-3037500D3*
D59*
X-1986500Y-2599000D3*
Y-2853000D3*
X363000Y-2599000D3*
Y-2853000D3*
D58*
X-2240500Y-2345000D3*
D56*
Y-3107000D3*
D58*
X744000Y-3297500D3*
D56*
Y-2535500D3*
D58*
X998000D3*
D56*
Y-3297500D3*
D54*
X-4381500Y-2159000D3*
D52*
X-2901500D3*
X-4591500Y-3279000D3*
X-2681500D3*
D69*
X4191000Y1270000D3*
D24*
X-2921000Y2667000D3*
X-4121000D3*
X-2921000Y825500D3*
X-4121000D3*
D47*
X2460627Y-2317750D3*
Y-2817750D3*
D24*
X-2921000Y-1016000D3*
X-4121000D3*
X-2921000Y-2857500D3*
X-4121000D3*
D45*
X4445000Y-3556000D3*
X4191000Y2540000D3*
Y2032000D3*
Y1524000D3*
Y1016000D3*
D65*
X2476500Y3492500D3*
D63*
Y3238500D3*
Y2984500D3*
Y2730500D3*
X3238500D3*
Y2984500D3*
Y3238500D3*
Y3492500D3*
D58*
X2857500Y3429000D3*
D56*
Y2794000D3*
D65*
X2476500Y2159000D3*
D63*
Y1905000D3*
Y1651000D3*
Y1397000D3*
X3238500D3*
Y1651000D3*
Y1905000D3*
Y2159000D3*
D58*
X2857500Y2095500D3*
D56*
Y1460500D3*
D65*
X2540000Y635000D3*
D63*
Y381000D3*
Y127000D3*
Y-127000D3*
X3302000D3*
Y127000D3*
Y381000D3*
Y635000D3*
D58*
X2921000Y571500D3*
D56*
Y-63500D3*
D65*
X2540000Y-825500D3*
D63*
Y-1079500D3*
Y-1333500D3*
Y-1587500D3*
X3302000D3*
Y-1333500D3*
Y-1079500D3*
Y-825500D3*
D58*
X2921000Y-889000D3*
D56*
Y-1524000D3*
D43*
X-2032000Y2286000D3*
X381000Y2163500D3*
X-2032000Y444500D3*
X381000Y322000D3*
X-2032000Y-1397000D3*
X381000Y-1523500D3*
X-2032000Y-3238500D3*
X363000Y-3361000D3*
D47*
X2476500Y-3317877D3*
M02*
