G04 DipTrace 4.3.0.1*
G04 Through.gbr*
%MOMM*%
G04 #@! TF.FileFunction,Plated,1,2,PTH,Drill*
G04 #@! TF.Part,Single*
G04 Drill Symbols*
G04 D=0.5 - Cross*
G04 D=0.55867 - X*
G04 D=0.9 - Y*
G04 D=1 - T*
G04 D=1.2 - V*
G04 D=1.25 - Clock*
G04 D=4 - Box_Cross*
G04 D=4.5 - Box_X*
G04 D=4.5 - Box_Y*
%ADD10C,0.2*%
%FSLAX35Y35*%
G04*
G71*
G90*
G75*
G01*
X4131050Y2794000D2*
D10*
X4250950D1*
X4191000D2*
Y2734050D1*
X4131050Y2286000D2*
X4250950D1*
X4191000D2*
Y2226050D1*
X4131050Y1778000D2*
X4250950D1*
X4191000D2*
Y1718050D1*
X1192050Y2481000D2*
X1311950D1*
X1252000D2*
Y2421050D1*
X1192050Y2989000D2*
X1311950D1*
X1252000D2*
Y2929050D1*
X1763550Y2540950D2*
X1823500Y2481000D1*
X1883450Y2540950D1*
X1823500Y2481000D2*
Y2421050D1*
X1763550Y3550950D2*
X1823500Y3491000D1*
X1883450Y3550950D1*
X1823500Y3491000D2*
Y3431050D1*
X1509550Y3556950D2*
X1569500Y3497000D1*
X1629450Y3556950D1*
X1569500Y3497000D2*
Y3437050D1*
X1509550Y2546950D2*
X1569500Y2487000D1*
X1629450Y2546950D1*
X1569500Y2487000D2*
Y2427050D1*
X4385050Y-4385050D2*
X4504950Y-4504950D1*
Y-4385050D2*
X4385050Y-4504950D1*
Y-4385050D2*
X4504950D1*
Y-4504950D1*
X4385050D1*
Y-4385050D1*
X-2046450Y2925500D2*
X-1926550D1*
X-1986500D2*
Y2865550D1*
X-2046450Y2671500D2*
X-1926550D1*
X-1986500D2*
Y2611550D1*
X303050Y2925500D2*
X422950D1*
X363000D2*
Y2865550D1*
X303050Y2671500D2*
X422950D1*
X363000D2*
Y2611550D1*
X-2300450Y3239450D2*
X-2180550Y3119550D1*
Y3239450D2*
X-2300450Y3119550D1*
Y2477450D2*
X-2180550Y2357550D1*
Y2477450D2*
X-2300450Y2357550D1*
X684050Y2286950D2*
X803950Y2167050D1*
Y2286950D2*
X684050Y2167050D1*
Y3048950D2*
X803950Y2929050D1*
Y3048950D2*
X684050Y2929050D1*
X938050Y3048950D2*
X1057950Y2929050D1*
Y3048950D2*
X938050Y2929050D1*
Y2286950D2*
X1057950Y2167050D1*
Y2286950D2*
X938050Y2167050D1*
X-4441450Y3425450D2*
X-4381500Y3365500D1*
X-4321550Y3425450D1*
X-2961450D2*
X-2901500Y3365500D1*
X-2841550Y3425450D1*
X-4651450Y2305450D2*
X-4591500Y2245500D1*
X-4531550Y2305450D1*
X-2741450D2*
X-2681500Y2245500D1*
X-2621550Y2305450D1*
X4445000Y-3877050D2*
Y-3996950D1*
X4385050Y-3937000D2*
X4504950D1*
X1192050Y639500D2*
X1311950D1*
X1252000D2*
Y579550D1*
X1192050Y1147500D2*
X1311950D1*
X1252000D2*
Y1087550D1*
X1827050Y699450D2*
X1887000Y639500D1*
X1946950Y699450D1*
X1887000Y639500D2*
Y579550D1*
X1827050Y1709450D2*
X1887000Y1649500D1*
X1946950Y1709450D1*
X1887000Y1649500D2*
Y1589550D1*
X1509550Y1715450D2*
X1569500Y1655500D1*
X1629450Y1715450D1*
X1569500Y1655500D2*
Y1595550D1*
X1509550Y705450D2*
X1569500Y645500D1*
X1629450Y705450D1*
X1569500Y645500D2*
Y585550D1*
X-2046450Y1084000D2*
X-1926550D1*
X-1986500D2*
Y1024050D1*
X-2046450Y830000D2*
X-1926550D1*
X-1986500D2*
Y770050D1*
X303050Y1084000D2*
X422950D1*
X363000D2*
Y1024050D1*
X303050Y830000D2*
X422950D1*
X363000D2*
Y770050D1*
X-2300450Y1397950D2*
X-2180550Y1278050D1*
Y1397950D2*
X-2300450Y1278050D1*
Y635950D2*
X-2180550Y516050D1*
Y635950D2*
X-2300450Y516050D1*
X684050Y445450D2*
X803950Y325550D1*
Y445450D2*
X684050Y325550D1*
Y1207450D2*
X803950Y1087550D1*
Y1207450D2*
X684050Y1087550D1*
X938050Y1207450D2*
X1057950Y1087550D1*
Y1207450D2*
X938050Y1087550D1*
Y445450D2*
X1057950Y325550D1*
Y445450D2*
X938050Y325550D1*
X-4441450Y1583950D2*
X-4381500Y1524000D1*
X-4321550Y1583950D1*
X-2961450D2*
X-2901500Y1524000D1*
X-2841550Y1583950D1*
X-4651450Y463950D2*
X-4591500Y404000D1*
X-4531550Y463950D1*
X-2741450D2*
X-2681500Y404000D1*
X-2621550Y463950D1*
X1192050Y-1202000D2*
X1311950D1*
X1252000D2*
Y-1261950D1*
X1192050Y-694000D2*
X1311950D1*
X1252000D2*
Y-753950D1*
X1827050Y-1142050D2*
X1887000Y-1202000D1*
X1946950Y-1142050D1*
X1887000Y-1202000D2*
Y-1261950D1*
X1827050Y-132050D2*
X1887000Y-192000D1*
X1946950Y-132050D1*
X1887000Y-192000D2*
Y-251950D1*
X1509550Y-126050D2*
X1569500Y-186000D1*
X1629450Y-126050D1*
X1569500Y-186000D2*
Y-245950D1*
X1509550Y-1136050D2*
X1569500Y-1196000D1*
X1629450Y-1136050D1*
X1569500Y-1196000D2*
Y-1255950D1*
X-2046450Y-757500D2*
X-1926550D1*
X-1986500D2*
Y-817450D1*
X-2046450Y-1011500D2*
X-1926550D1*
X-1986500D2*
Y-1071450D1*
X303050Y-757500D2*
X422950D1*
X363000D2*
Y-817450D1*
X303050Y-1011500D2*
X422950D1*
X363000D2*
Y-1071450D1*
X-2300450Y-443550D2*
X-2180550Y-563450D1*
Y-443550D2*
X-2300450Y-563450D1*
Y-1205550D2*
X-2180550Y-1325450D1*
Y-1205550D2*
X-2300450Y-1325450D1*
X684050Y-1396050D2*
X803950Y-1515950D1*
Y-1396050D2*
X684050Y-1515950D1*
Y-634050D2*
X803950Y-753950D1*
Y-634050D2*
X684050Y-753950D1*
X938050Y-634050D2*
X1057950Y-753950D1*
Y-634050D2*
X938050Y-753950D1*
Y-1396050D2*
X1057950Y-1515950D1*
Y-1396050D2*
X938050Y-1515950D1*
X-4441450Y-257550D2*
X-4381500Y-317500D1*
X-4321550Y-257550D1*
X-2961450D2*
X-2901500Y-317500D1*
X-2841550Y-257550D1*
X-4651450Y-1377550D2*
X-4591500Y-1437500D1*
X-4531550Y-1377550D1*
X-2741450D2*
X-2681500Y-1437500D1*
X-2621550Y-1377550D1*
X1192050Y-3043500D2*
X1311950D1*
X1252000D2*
Y-3103450D1*
X1192050Y-2535500D2*
X1311950D1*
X1252000D2*
Y-2595450D1*
X1827050Y-2983550D2*
X1887000Y-3043500D1*
X1946950Y-2983550D1*
X1887000Y-3043500D2*
Y-3103450D1*
X1827050Y-1973550D2*
X1887000Y-2033500D1*
X1946950Y-1973550D1*
X1887000Y-2033500D2*
Y-2093450D1*
X1509550Y-1967550D2*
X1569500Y-2027500D1*
X1629450Y-1967550D1*
X1569500Y-2027500D2*
Y-2087450D1*
X1509550Y-2977550D2*
X1569500Y-3037500D1*
X1629450Y-2977550D1*
X1569500Y-3037500D2*
Y-3097450D1*
X-2046450Y-2599000D2*
X-1926550D1*
X-1986500D2*
Y-2658950D1*
X-2046450Y-2853000D2*
X-1926550D1*
X-1986500D2*
Y-2912950D1*
X303050Y-2599000D2*
X422950D1*
X363000D2*
Y-2658950D1*
X303050Y-2853000D2*
X422950D1*
X363000D2*
Y-2912950D1*
X-2300450Y-2285050D2*
X-2180550Y-2404950D1*
Y-2285050D2*
X-2300450Y-2404950D1*
Y-3047050D2*
X-2180550Y-3166950D1*
Y-3047050D2*
X-2300450Y-3166950D1*
X684050Y-3237550D2*
X803950Y-3357450D1*
Y-3237550D2*
X684050Y-3357450D1*
Y-2475550D2*
X803950Y-2595450D1*
Y-2475550D2*
X684050Y-2595450D1*
X938050Y-2475550D2*
X1057950Y-2595450D1*
Y-2475550D2*
X938050Y-2595450D1*
Y-3237550D2*
X1057950Y-3357450D1*
Y-3237550D2*
X938050Y-3357450D1*
X-4441450Y-2099050D2*
X-4381500Y-2159000D1*
X-4321550Y-2099050D1*
X-2961450D2*
X-2901500Y-2159000D1*
X-2841550Y-2099050D1*
X-4651450Y-3219050D2*
X-4591500Y-3279000D1*
X-4531550Y-3219050D1*
X-2741450D2*
X-2681500Y-3279000D1*
X-2621550Y-3219050D1*
X4131050Y1270000D2*
X4250950D1*
X4191000D2*
Y1210050D1*
X-2980950Y2667000D2*
X-2861050D1*
X-2921000D2*
Y2607050D1*
X-4180950Y2667000D2*
X-4061050D1*
X-4121000D2*
Y2607050D1*
X-2980950Y825500D2*
X-2861050D1*
X-2921000D2*
Y765550D1*
X-4180950Y825500D2*
X-4061050D1*
X-4121000D2*
Y765550D1*
X2400677Y-2257800D2*
X2460627Y-2317750D1*
X2520577Y-2257800D1*
X2400677Y-2757800D2*
X2460627Y-2817750D1*
X2520577Y-2757800D1*
X-2980950Y-1016000D2*
X-2861050D1*
X-2921000D2*
Y-1075950D1*
X-4180950Y-1016000D2*
X-4061050D1*
X-4121000D2*
Y-1075950D1*
X-2980950Y-2857500D2*
X-2861050D1*
X-2921000D2*
Y-2917450D1*
X-4180950Y-2857500D2*
X-4061050D1*
X-4121000D2*
Y-2917450D1*
X4385050Y-3496050D2*
X4445000Y-3556000D1*
X4504950Y-3496050D1*
X4445000Y-3556000D2*
Y-3615950D1*
X4131050Y2599950D2*
X4191000Y2540000D1*
X4250950Y2599950D1*
X4191000Y2540000D2*
Y2480050D1*
X4131050Y2091950D2*
X4191000Y2032000D1*
X4250950Y2091950D1*
X4191000Y2032000D2*
Y1972050D1*
X4131050Y1583950D2*
X4191000Y1524000D1*
X4250950Y1583950D1*
X4191000Y1524000D2*
Y1464050D1*
X4131050Y1075950D2*
X4191000Y1016000D1*
X4250950Y1075950D1*
X4191000Y1016000D2*
Y956050D1*
X2416550Y3552450D2*
X2476500Y3492500D1*
X2536450Y3552450D1*
X2476500Y3492500D2*
Y3432550D1*
X2416550Y3298450D2*
X2476500Y3238500D1*
X2536450Y3298450D1*
X2476500Y3238500D2*
Y3178550D1*
X2416550Y3044450D2*
X2476500Y2984500D1*
X2536450Y3044450D1*
X2476500Y2984500D2*
Y2924550D1*
X2416550Y2790450D2*
X2476500Y2730500D1*
X2536450Y2790450D1*
X2476500Y2730500D2*
Y2670550D1*
X3178550Y2790450D2*
X3238500Y2730500D1*
X3298450Y2790450D1*
X3238500Y2730500D2*
Y2670550D1*
X3178550Y3044450D2*
X3238500Y2984500D1*
X3298450Y3044450D1*
X3238500Y2984500D2*
Y2924550D1*
X3178550Y3298450D2*
X3238500Y3238500D1*
X3298450Y3298450D1*
X3238500Y3238500D2*
Y3178550D1*
X3178550Y3552450D2*
X3238500Y3492500D1*
X3298450Y3552450D1*
X3238500Y3492500D2*
Y3432550D1*
X2797550Y3488950D2*
X2917450Y3369050D1*
Y3488950D2*
X2797550Y3369050D1*
Y2853950D2*
X2917450Y2734050D1*
Y2853950D2*
X2797550Y2734050D1*
X2416550Y2218950D2*
X2476500Y2159000D1*
X2536450Y2218950D1*
X2476500Y2159000D2*
Y2099050D1*
X2416550Y1964950D2*
X2476500Y1905000D1*
X2536450Y1964950D1*
X2476500Y1905000D2*
Y1845050D1*
X2416550Y1710950D2*
X2476500Y1651000D1*
X2536450Y1710950D1*
X2476500Y1651000D2*
Y1591050D1*
X2416550Y1456950D2*
X2476500Y1397000D1*
X2536450Y1456950D1*
X2476500Y1397000D2*
Y1337050D1*
X3178550Y1456950D2*
X3238500Y1397000D1*
X3298450Y1456950D1*
X3238500Y1397000D2*
Y1337050D1*
X3178550Y1710950D2*
X3238500Y1651000D1*
X3298450Y1710950D1*
X3238500Y1651000D2*
Y1591050D1*
X3178550Y1964950D2*
X3238500Y1905000D1*
X3298450Y1964950D1*
X3238500Y1905000D2*
Y1845050D1*
X3178550Y2218950D2*
X3238500Y2159000D1*
X3298450Y2218950D1*
X3238500Y2159000D2*
Y2099050D1*
X2797550Y2155450D2*
X2917450Y2035550D1*
Y2155450D2*
X2797550Y2035550D1*
Y1520450D2*
X2917450Y1400550D1*
Y1520450D2*
X2797550Y1400550D1*
X2480050Y694950D2*
X2540000Y635000D1*
X2599950Y694950D1*
X2540000Y635000D2*
Y575050D1*
X2480050Y440950D2*
X2540000Y381000D1*
X2599950Y440950D1*
X2540000Y381000D2*
Y321050D1*
X2480050Y186950D2*
X2540000Y127000D1*
X2599950Y186950D1*
X2540000Y127000D2*
Y67050D1*
X2480050Y-67050D2*
X2540000Y-127000D1*
X2599950Y-67050D1*
X2540000Y-127000D2*
Y-186950D1*
X3242050Y-67050D2*
X3302000Y-127000D1*
X3361950Y-67050D1*
X3302000Y-127000D2*
Y-186950D1*
X3242050Y186950D2*
X3302000Y127000D1*
X3361950Y186950D1*
X3302000Y127000D2*
Y67050D1*
X3242050Y440950D2*
X3302000Y381000D1*
X3361950Y440950D1*
X3302000Y381000D2*
Y321050D1*
X3242050Y694950D2*
X3302000Y635000D1*
X3361950Y694950D1*
X3302000Y635000D2*
Y575050D1*
X2861050Y631450D2*
X2980950Y511550D1*
Y631450D2*
X2861050Y511550D1*
Y-3550D2*
X2980950Y-123450D1*
Y-3550D2*
X2861050Y-123450D1*
X2480050Y-765550D2*
X2540000Y-825500D1*
X2599950Y-765550D1*
X2540000Y-825500D2*
Y-885450D1*
X2480050Y-1019550D2*
X2540000Y-1079500D1*
X2599950Y-1019550D1*
X2540000Y-1079500D2*
Y-1139450D1*
X2480050Y-1273550D2*
X2540000Y-1333500D1*
X2599950Y-1273550D1*
X2540000Y-1333500D2*
Y-1393450D1*
X2480050Y-1527550D2*
X2540000Y-1587500D1*
X2599950Y-1527550D1*
X2540000Y-1587500D2*
Y-1647450D1*
X3242050Y-1527550D2*
X3302000Y-1587500D1*
X3361950Y-1527550D1*
X3302000Y-1587500D2*
Y-1647450D1*
X3242050Y-1273550D2*
X3302000Y-1333500D1*
X3361950Y-1273550D1*
X3302000Y-1333500D2*
Y-1393450D1*
X3242050Y-1019550D2*
X3302000Y-1079500D1*
X3361950Y-1019550D1*
X3302000Y-1079500D2*
Y-1139450D1*
X3242050Y-765550D2*
X3302000Y-825500D1*
X3361950Y-765550D1*
X3302000Y-825500D2*
Y-885450D1*
X2861050Y-829050D2*
X2980950Y-948950D1*
Y-829050D2*
X2861050Y-948950D1*
Y-1464050D2*
X2980950Y-1583950D1*
Y-1464050D2*
X2861050Y-1583950D1*
X-2032000Y2345950D2*
Y2286000D1*
X-1972050D1*
X381000Y2223450D2*
Y2163500D1*
X440950D1*
X-2032000Y504450D2*
Y444500D1*
X-1972050D1*
X381000Y381950D2*
Y322000D1*
X440950D1*
X-2032000Y-1337050D2*
Y-1397000D1*
X-1972050D1*
X381000Y-1463550D2*
Y-1523500D1*
X440950D1*
X-2032000Y-3178550D2*
Y-3238500D1*
X-1972050D1*
X363000Y-3301050D2*
Y-3361000D1*
X422950D1*
X2416550Y-3257927D2*
X2476500Y-3317877D1*
X2536450Y-3257927D1*
X4440050Y4559950D2*
X4500000Y4500000D1*
X4559950Y4559950D1*
X4500000Y4500000D2*
Y4440050D1*
X4440050Y4559950D2*
X4559950D1*
Y4440050D1*
X4440050D1*
Y4559950D1*
X-4559950Y-4440050D2*
X-4500000Y-4500000D1*
X-4440050Y-4440050D1*
X-4500000Y-4500000D2*
Y-4559950D1*
X-4559950Y-4440050D2*
X-4440050D1*
Y-4559950D1*
X-4559950D1*
Y-4440050D1*
Y4559950D2*
X-4500000Y4500000D1*
X-4440050Y4559950D1*
X-4500000Y4500000D2*
Y4440050D1*
X-4559950Y4559950D2*
X-4440050D1*
Y4440050D1*
X-4559950D1*
Y4559950D1*
X-1587500Y3361950D2*
Y3242050D1*
X-1647450Y3302000D2*
X-1527550D1*
X-1647450Y3361950D2*
X-1527550D1*
Y3242050D1*
X-1647450D1*
Y3361950D1*
X-1587500Y2345950D2*
Y2226050D1*
X-1647450Y2286000D2*
X-1527550D1*
X-1647450Y2345950D2*
X-1527550D1*
Y2226050D1*
X-1647450D1*
Y2345950D1*
X-1587500Y1520450D2*
Y1400550D1*
X-1647450Y1460500D2*
X-1527550D1*
X-1647450Y1520450D2*
X-1527550D1*
Y1400550D1*
X-1647450D1*
Y1520450D1*
X-1587500Y504450D2*
Y384550D1*
X-1647450Y444500D2*
X-1527550D1*
X-1647450Y504450D2*
X-1527550D1*
Y384550D1*
X-1647450D1*
Y504450D1*
X-1587500Y-321050D2*
Y-440950D1*
X-1647450Y-381000D2*
X-1527550D1*
X-1647450Y-321050D2*
X-1527550D1*
Y-440950D1*
X-1647450D1*
Y-321050D1*
X-1587500Y-1337050D2*
Y-1456950D1*
X-1647450Y-1397000D2*
X-1527550D1*
X-1647450Y-1337050D2*
X-1527550D1*
Y-1456950D1*
X-1647450D1*
Y-1337050D1*
X-1587500Y-2162550D2*
Y-2282450D1*
X-1647450Y-2222500D2*
X-1527550D1*
X-1647450Y-2162550D2*
X-1527550D1*
Y-2282450D1*
X-1647450D1*
Y-2162550D1*
X-1587500Y-3178550D2*
Y-3298450D1*
X-1647450Y-3238500D2*
X-1527550D1*
X-1647450Y-3178550D2*
X-1527550D1*
Y-3298450D1*
X-1647450D1*
Y-3178550D1*
M02*
