G04 DipTrace 4.3.0.1*
G04 2 - Bottom.gbr*
%MOMM*%
G04 #@! TF.FileFunction,Copper,L2,Bot*
G04 #@! TF.Part,Single*
G04 #@! TA.AperFunction,Conductor*
%ADD15C,1.5*%
%ADD16C,1.0*%
%ADD17C,0.5*%
G04 #@! TA.AperFunction,ComponentPad*
%ADD19R,8.4X8.4*%
%ADD21O,5.0X3.5*%
%ADD22O,5.0X2.5*%
%ADD23C,1.27*%
%ADD24C,1.27*%
%ADD25C,1.905*%
%ADD26C,1.65*%
%ADD27C,1.0*%
%ADD28R,1.5X1.5*%
%ADD29C,1.5*%
%FSLAX35Y35*%
G04*
G71*
G90*
G75*
G01*
G04 Bottom*
%LPD*%
X-646000Y1000000D2*
D16*
X-619000D1*
X-254000Y635000D1*
Y-127000D1*
X-636500Y-509500D1*
X-646000Y-500000D1*
Y1000000D2*
X238000D1*
X254000Y1016000D1*
X-646000Y-1000000D2*
X-1016000Y-630000D1*
Y130000D1*
X-646000Y500000D1*
Y-1000000D2*
X238000D1*
X254000Y-1016000D1*
D17*
X698500D1*
Y-508000D2*
Y-1016000D1*
Y-1524000D1*
X825500Y-1651000D1*
X1079500Y-1905000D1*
X1524000D1*
X1913000Y-1516000D1*
X2921000D1*
X254000Y-254000D2*
Y254000D1*
X1016000Y1016000D1*
X1079500D1*
X1454500D1*
X1460500Y1010000D1*
Y825500D1*
X1651000Y635000D1*
X2127250D1*
X1460500Y-1016000D2*
Y-1524000D1*
X1333500Y-1651000D1*
X1460500Y-1016000D2*
X2921000D1*
X1079500Y6000D2*
Y-635000D1*
X1460500Y-1016000D1*
X2508250Y444500D2*
X2444750D1*
X2381250Y381000D1*
X2127250D1*
X1454500D1*
X1079500Y6000D1*
X2127250Y381000D2*
X2413000Y95250D1*
X3841750D1*
X4000500Y254000D1*
X2032000Y-254000D2*
Y285750D1*
X2127250Y381000D1*
X1460500Y-508000D2*
X1524000D1*
X2913000D1*
X2921000Y-516000D1*
X1460500Y0D2*
Y-444500D1*
X1524000Y-508000D1*
X4445000Y-4445000D2*
D15*
X-508000D1*
X-1460500Y-3492500D1*
Y-2286000D1*
Y2286000D1*
Y3619500D1*
X-444500Y4635500D1*
X3683000D1*
X-4826000Y2286000D2*
X-1460500D1*
X-4762500Y-2286000D2*
X-1460500D1*
X2889250Y635000D2*
D17*
X2762250D1*
X2635250Y762000D1*
X2381250D1*
X2254250Y889000D1*
X2127250D1*
X2508250Y1079500D2*
Y889000D1*
X2762250Y635000D1*
X2889250D2*
X4000500D1*
D19*
X4445000Y-4445000D3*
D21*
X-2646000Y1000000D3*
Y-1000000D3*
X-646000Y1000000D3*
Y500000D3*
Y-500000D3*
Y-1000000D3*
D22*
X-3920500Y-1253500D3*
Y-1753500D3*
D23*
X254000Y1016000D3*
D24*
Y254000D3*
D23*
Y-254000D3*
D24*
Y-1016000D3*
D23*
X698500Y-508000D3*
D24*
X1460500D3*
D23*
X698500Y-1016000D3*
D24*
X1460500D3*
D22*
X2921000D3*
Y-516000D3*
D25*
X4000500Y635000D3*
D26*
X1333500Y-1651000D3*
X825500D3*
D27*
X3683000Y4635500D3*
D28*
X1460500Y0D3*
D29*
Y1010000D3*
D28*
X1079500Y1016000D3*
D29*
Y6000D3*
D25*
X4445000Y-3556000D3*
X4000500Y254000D3*
D28*
X2127250Y1143000D3*
D29*
Y889000D3*
Y635000D3*
Y381000D3*
X2889250D3*
Y635000D3*
Y889000D3*
Y1143000D3*
D23*
X2508250Y1079500D3*
D24*
Y444500D3*
D27*
X-4826000Y2286000D3*
X-4762500Y-2286000D3*
D28*
X1782000Y-254000D3*
D29*
X2032000D3*
X2282000D3*
D22*
X2921000Y-1516000D3*
M02*
