G04 DipTrace 4.3.0.1*
G04 BottomSilk.gbr*
%MOMM*%
G04 #@! TF.FileFunction,Legend,Bot*
G04 #@! TF.Part,Single*
%ADD16C,1.0*%
%ADD20C,0.75*%
%ADD61C,0.33333*%
%FSLAX35Y35*%
G04*
G71*
G90*
G75*
G01*
G04 BotSilk*
%LPD*%
X-4270500Y-1503500D2*
D16*
X-3570500D1*
X-3111500Y3270250D2*
D20*
X-3556000Y4095750D1*
X-4000500Y3270250D1*
X-3111500D1*
X-3556000Y3778263D2*
Y3524257D1*
Y3397213D2*
D3*
X3271000Y-766000D2*
D16*
X2571000D1*
X3271000Y-1274000D2*
X2571000D1*
X-2599720Y2467080D2*
D61*
Y2620211D1*
X-2541432Y2467080D1*
X-2483144Y2620211D1*
Y2467080D1*
X-2783130D2*
X-2724674Y2620211D1*
X-2666386Y2467080D1*
X-2688286Y2518124D2*
X-2761230D1*
X-2849797Y2620211D2*
Y2467080D1*
X-3018551Y2620211D2*
Y2467080D1*
X-2916464Y2620211D1*
Y2467080D1*
X-3187306Y2598311D2*
X-3172818Y2612967D1*
X-3150918Y2620211D1*
X-3121774D1*
X-3099874Y2612967D1*
X-3085218Y2598311D1*
Y2583824D1*
X-3092630Y2569167D1*
X-3099874Y2561924D1*
X-3114362Y2554680D1*
X-3158162Y2540024D1*
X-3172818Y2532780D1*
X-3180062Y2525367D1*
X-3187306Y2510880D1*
Y2488980D1*
X-3172818Y2474492D1*
X-3150918Y2467080D1*
X-3121774D1*
X-3099874Y2474492D1*
X-3085218Y2488980D1*
X-3421716Y2620211D2*
X-3480004Y2467080D1*
X-3538291Y2620211D1*
X-3648758D2*
X-3634102Y2612967D1*
X-3619614Y2598311D1*
X-3612202Y2583824D1*
X-3604958Y2561924D1*
Y2525367D1*
X-3612202Y2503636D1*
X-3619614Y2488980D1*
X-3634102Y2474492D1*
X-3648758Y2467080D1*
X-3677902D1*
X-3692389Y2474492D1*
X-3707046Y2488980D1*
X-3714289Y2503636D1*
X-3721533Y2525367D1*
Y2561924D1*
X-3714289Y2583824D1*
X-3707046Y2598311D1*
X-3692389Y2612967D1*
X-3677902Y2620211D1*
X-3648758D1*
X-3788200D2*
Y2467080D1*
X-3875632D1*
X-3993342Y2620211D2*
Y2467080D1*
X-3942298Y2620211D2*
X-4044386D1*
X-4227796Y2467080D2*
X-4169340Y2620211D1*
X-4111053Y2467080D1*
X-4132953Y2518124D2*
X-4205896D1*
X-4403795Y2583824D2*
X-4396551Y2598311D1*
X-4381895Y2612967D1*
X-4367407Y2620211D1*
X-4338263D1*
X-4323607Y2612967D1*
X-4309119Y2598311D1*
X-4301707Y2583824D1*
X-4294463Y2561924D1*
Y2525367D1*
X-4301707Y2503636D1*
X-4309119Y2488980D1*
X-4323607Y2474492D1*
X-4338263Y2467080D1*
X-4367407D1*
X-4381895Y2474492D1*
X-4396551Y2488980D1*
X-4403795Y2503636D1*
Y2525367D1*
X-4367407D1*
X-4565137Y2620211D2*
X-4470461D1*
Y2467080D1*
X-4565137D1*
X-4470461Y2547267D2*
X-4528749D1*
X-3117554Y2837824D2*
X-3110311Y2852311D1*
X-3095654Y2866967D1*
X-3081167Y2874211D1*
X-3052023D1*
X-3037367Y2866967D1*
X-3022879Y2852311D1*
X-3015467Y2837824D1*
X-3008223Y2815924D1*
Y2779367D1*
X-3015467Y2757636D1*
X-3022879Y2742980D1*
X-3037367Y2728492D1*
X-3052023Y2721080D1*
X-3081167D1*
X-3095654Y2728492D1*
X-3110311Y2742980D1*
X-3117554Y2757636D1*
X-3300965Y2721080D2*
X-3242509Y2874211D1*
X-3184221Y2721080D1*
X-3206121Y2772124D2*
X-3279065D1*
X-3367632Y2874211D2*
Y2764880D1*
X-3374875Y2742980D1*
X-3389532Y2728492D1*
X-3411432Y2721080D1*
X-3425919D1*
X-3447819Y2728492D1*
X-3462475Y2742980D1*
X-3469719Y2764880D1*
Y2874211D1*
X-3587430D2*
Y2721080D1*
X-3536386Y2874211D2*
X-3638474D1*
X-3705140D2*
Y2721080D1*
X-3815607Y2874211D2*
X-3800951Y2866967D1*
X-3786463Y2852311D1*
X-3779051Y2837824D1*
X-3771807Y2815924D1*
Y2779367D1*
X-3779051Y2757636D1*
X-3786463Y2742980D1*
X-3800951Y2728492D1*
X-3815607Y2721080D1*
X-3844751D1*
X-3859238Y2728492D1*
X-3873895Y2742980D1*
X-3881138Y2757636D1*
X-3888382Y2779367D1*
Y2815924D1*
X-3881138Y2837824D1*
X-3873895Y2852311D1*
X-3859238Y2866967D1*
X-3844751Y2874211D1*
X-3815607D1*
X-4057137D2*
Y2721080D1*
X-3955049Y2874211D1*
Y2721080D1*
M02*
