G04 DipTrace 4.3.0.1*
G04 BottomMask.gbr*
%MOMM*%
G04 #@! TF.FileFunction,Soldermask,Bot*
G04 #@! TF.Part,Single*
%ADD31C,4.5*%
%ADD39C,1.7*%
%ADD41R,1.7X1.7*%
%ADD43C,1.2*%
%ADD45C,1.85*%
%ADD47C,2.105*%
%ADD49C,1.47*%
%ADD51C,1.47*%
%ADD53O,5.2X2.7*%
%ADD55O,5.2X3.7*%
%ADD57R,8.6X8.6*%
%FSLAX35Y35*%
G04*
G71*
G90*
G75*
G01*
G04 BotMask*
%LPD*%
D57*
X4445000Y-4445000D3*
D31*
X4500000Y4500000D3*
X-4500000Y-4500000D3*
Y4500000D3*
D55*
X-2646000Y1000000D3*
Y-1000000D3*
X-646000Y1000000D3*
Y500000D3*
Y-500000D3*
Y-1000000D3*
D53*
X-3920500Y-1253500D3*
Y-1753500D3*
D51*
X254000Y1016000D3*
D49*
Y254000D3*
D51*
Y-254000D3*
D49*
Y-1016000D3*
D51*
X698500Y-508000D3*
D49*
X1460500D3*
D51*
X698500Y-1016000D3*
D49*
X1460500D3*
D53*
X2921000D3*
Y-516000D3*
D47*
X4000500Y635000D3*
D45*
X1333500Y-1651000D3*
X825500D3*
D43*
X3683000Y4635500D3*
D41*
X1460500Y0D3*
D39*
Y1010000D3*
D41*
X1079500Y1016000D3*
D39*
Y6000D3*
D47*
X4445000Y-3556000D3*
X4000500Y254000D3*
D41*
X2127250Y1143000D3*
D39*
Y889000D3*
Y635000D3*
Y381000D3*
X2889250D3*
Y635000D3*
Y889000D3*
Y1143000D3*
D51*
X2508250Y1079500D3*
D49*
Y444500D3*
D43*
X-4826000Y2286000D3*
X-4762500Y-2286000D3*
D41*
X1782000Y-254000D3*
D39*
X2032000D3*
X2282000D3*
D53*
X2921000Y-1516000D3*
M02*
