G04 DipTrace 4.3.0.1*
G04 Through.gbr*
%MOMM*%
G04 #@! TF.FileFunction,Plated,1,2,PTH,Drill*
G04 #@! TF.Part,Single*
G04 Drill Symbols*
G04 D=0.25 - Cross*
G04 D=0.55867 - X*
G04 D=0.9 - Y*
G04 D=1 - T*
G04 D=1.2 - V*
G04 D=4.5 - Clock*
G04 D=4.5 - Box_Cross*
%ADD10C,0.2*%
%FSLAX35Y35*%
G04*
G71*
G90*
G75*
G01*
X4445000Y-4385050D2*
D10*
Y-4445000D1*
X4504950D1*
X-2705950Y1059950D2*
X-2646000Y1000000D1*
X-2586050Y1059950D1*
X-2705950Y-940050D2*
X-2646000Y-1000000D1*
X-2586050Y-940050D1*
X-705950Y1059950D2*
X-646000Y1000000D1*
X-586050Y1059950D1*
X-705950Y559950D2*
X-646000Y500000D1*
X-586050Y559950D1*
X-705950Y-440050D2*
X-646000Y-500000D1*
X-586050Y-440050D1*
X-705950Y-940050D2*
X-646000Y-1000000D1*
X-586050Y-940050D1*
X-3980450Y-1193550D2*
X-3920500Y-1253500D1*
X-3860550Y-1193550D1*
X-3980450Y-1693550D2*
X-3920500Y-1753500D1*
X-3860550Y-1693550D1*
X194050Y1075950D2*
X313950Y956050D1*
Y1075950D2*
X194050Y956050D1*
Y313950D2*
X313950Y194050D1*
Y313950D2*
X194050Y194050D1*
Y-194050D2*
X313950Y-313950D1*
Y-194050D2*
X194050Y-313950D1*
Y-956050D2*
X313950Y-1075950D1*
Y-956050D2*
X194050Y-1075950D1*
X638550Y-448050D2*
X758450Y-567950D1*
Y-448050D2*
X638550Y-567950D1*
X1400550Y-448050D2*
X1520450Y-567950D1*
Y-448050D2*
X1400550Y-567950D1*
X638550Y-956050D2*
X758450Y-1075950D1*
Y-956050D2*
X638550Y-1075950D1*
X1400550Y-956050D2*
X1520450Y-1075950D1*
Y-956050D2*
X1400550Y-1075950D1*
X2861050Y-956050D2*
X2921000Y-1016000D1*
X2980950Y-956050D1*
X2861050Y-456050D2*
X2921000Y-516000D1*
X2980950Y-456050D1*
X3940550Y694950D2*
X4000500Y635000D1*
X4060450Y694950D1*
X4000500Y635000D2*
Y575050D1*
X1273550Y-1651000D2*
X1393450D1*
X1333500D2*
Y-1710950D1*
X765550Y-1651000D2*
X885450D1*
X825500D2*
Y-1710950D1*
X3683000Y4695450D2*
Y4575550D1*
X3623050Y4635500D2*
X3742950D1*
X1400550Y59950D2*
X1460500Y0D1*
X1520450Y59950D1*
X1460500Y0D2*
Y-59950D1*
X1400550Y1069950D2*
X1460500Y1010000D1*
X1520450Y1069950D1*
X1460500Y1010000D2*
Y950050D1*
X1019550Y1075950D2*
X1079500Y1016000D1*
X1139450Y1075950D1*
X1079500Y1016000D2*
Y956050D1*
X1019550Y65950D2*
X1079500Y6000D1*
X1139450Y65950D1*
X1079500Y6000D2*
Y-53950D1*
X4385050Y-3496050D2*
X4445000Y-3556000D1*
X4504950Y-3496050D1*
X4445000Y-3556000D2*
Y-3615950D1*
X3940550Y313950D2*
X4000500Y254000D1*
X4060450Y313950D1*
X4000500Y254000D2*
Y194050D1*
X2067300Y1202950D2*
X2127250Y1143000D1*
X2187200Y1202950D1*
X2127250Y1143000D2*
Y1083050D1*
X2067300Y948950D2*
X2127250Y889000D1*
X2187200Y948950D1*
X2127250Y889000D2*
Y829050D1*
X2067300Y694950D2*
X2127250Y635000D1*
X2187200Y694950D1*
X2127250Y635000D2*
Y575050D1*
X2067300Y440950D2*
X2127250Y381000D1*
X2187200Y440950D1*
X2127250Y381000D2*
Y321050D1*
X2829300Y440950D2*
X2889250Y381000D1*
X2949200Y440950D1*
X2889250Y381000D2*
Y321050D1*
X2829300Y694950D2*
X2889250Y635000D1*
X2949200Y694950D1*
X2889250Y635000D2*
Y575050D1*
X2829300Y948950D2*
X2889250Y889000D1*
X2949200Y948950D1*
X2889250Y889000D2*
Y829050D1*
X2829300Y1202950D2*
X2889250Y1143000D1*
X2949200Y1202950D1*
X2889250Y1143000D2*
Y1083050D1*
X2448300Y1139450D2*
X2568200Y1019550D1*
Y1139450D2*
X2448300Y1019550D1*
Y504450D2*
X2568200Y384550D1*
Y504450D2*
X2448300Y384550D1*
X-4826000Y2345950D2*
Y2226050D1*
X-4885950Y2286000D2*
X-4766050D1*
X-4762500Y-2226050D2*
Y-2345950D1*
X-4822450Y-2286000D2*
X-4702550D1*
X1722050Y-194050D2*
X1782000Y-254000D1*
X1841950Y-194050D1*
X1782000Y-254000D2*
Y-313950D1*
X1972050Y-194050D2*
X2032000Y-254000D1*
X2091950Y-194050D1*
X2032000Y-254000D2*
Y-313950D1*
X2222050Y-194050D2*
X2282000Y-254000D1*
X2341950Y-194050D1*
X2282000Y-254000D2*
Y-313950D1*
X2861050Y-1456050D2*
X2921000Y-1516000D1*
X2980950Y-1456050D1*
X4500000Y4559950D2*
Y4440050D1*
X4440050Y4500000D2*
X4559950D1*
X4440050Y4559950D2*
X4559950D1*
Y4440050D1*
X4440050D1*
Y4559950D1*
X-4500000Y-4440050D2*
Y-4559950D1*
X-4559950Y-4500000D2*
X-4440050D1*
X-4559950Y-4440050D2*
X-4440050D1*
Y-4559950D1*
X-4559950D1*
Y-4440050D1*
X-4500000Y4559950D2*
Y4440050D1*
X-4559950Y4500000D2*
X-4440050D1*
X-4559950Y4559950D2*
X-4440050D1*
Y4440050D1*
X-4559950D1*
Y4559950D1*
M02*
