M48
METRIC,0000.00
T01C0.25
T02C0.559
T03C0.9
T04C1.0
T05C1.2
T06C4.5
%
T01
X+003683Y+004636
X-004826Y+002286
X-004762Y-002286
T02
X+000254Y+001016
X+000254Y+000254
X+000254Y-000254
X+000699Y-000508
X+000699Y-001016
X+000254Y-001016
X+001460Y-001016
X+001460Y-000508
X+002508Y+000445
X+002508Y+001079
T03
X+004000Y+000635
X+004000Y+000254
X+002889Y+000381
X+002889Y+000635
X+002889Y+000889
X+002889Y+001143
X+002127Y+001143
X+002127Y+000889
X+002127Y+000635
X+002127Y+000381
X+002032Y-000254
X+001782Y-000254
X+001461Y+000000
X+001079Y+000006
X+001079Y+001016
X+001461Y+001010
X+002282Y-000254
X+004445Y-003556
T04
X+001333Y-001651
X+000825Y-001651
T05
X-002646Y+001000
X-002646Y-001000
X-003921Y-001253
X-003921Y-001753
X-000646Y-001000
X-000646Y-000500
X-000646Y+000500
X-000646Y+001000
X+002921Y-000516
X+002921Y-001016
X+002921Y-001516
T06
X+004445Y-004445
X+004500Y+004500
X-004500Y+004500
X-004500Y-004500
T00
M30
