G04 DipTrace 4.3.0.1*
G04 TopSilk.gbr*
%MOMM*%
G04 #@! TF.FileFunction,Legend,Top*
G04 #@! TF.Part,Single*
%ADD10C,0.25*%
%ADD14C,0.05*%
%ADD15C,1.5*%
%ADD16C,1.0*%
%ADD20C,0.75*%
%ADD59C,0.19608*%
%ADD60C,0.23529*%
%ADD61C,0.33333*%
%ADD62C,0.27451*%
%ADD63C,0.31373*%
%ADD64C,0.15686*%
%FSLAX35Y35*%
G04*
G71*
G90*
G75*
G01*
G04 TopSilk*
%LPD*%
X4444950Y-4953000D2*
D15*
X4445000D1*
G03X4445000Y-3937000I0J508000D01*
G01*
X4444950D1*
G03X4444950Y-4953000I0J-508000D01*
G01*
X3683050Y-3683000D2*
D10*
Y-3937000D1*
X3429000D2*
X3936950D1*
X3555950Y-4064000D2*
X3810000D1*
X3746450Y-4191000D2*
X3619500D1*
X-4000500Y3270250D2*
D20*
X-3556000Y4095750D1*
X-3111500Y3270250D1*
X-4000500D1*
X-3556000Y3778263D2*
Y3524257D1*
Y3397213D2*
D3*
X-4753973Y4500000D2*
D14*
G02X-4753973Y4500000I253973J0D01*
G01*
X-4881000D2*
X-4119000D1*
X-4500000Y4119000D2*
Y4881000D1*
X-4753973Y-4500000D2*
G02X-4753973Y-4500000I253973J0D01*
G01*
X-4881000D2*
X-4119000D1*
X-4500000Y-4881000D2*
Y-4119000D1*
X4246027Y4500000D2*
G02X4246027Y4500000I253973J0D01*
G01*
X4119000D2*
X4881000D1*
X4500000Y4119000D2*
Y4881000D1*
X-3026000Y1630000D2*
D10*
Y-1630000D1*
X-266000D1*
Y1630000D1*
X-3026000D1*
X-2915877Y1524050D2*
Y-1524050D1*
X-376123D1*
Y1524050D1*
X-2915877D1*
X-2154117Y1270097D2*
Y507907D1*
X-2915877D1*
X-2154117Y-1270097D2*
Y-507907D1*
X-2915877D1*
X-4270500Y-1003500D2*
Y-2003500D1*
X-3570500D1*
Y-1003500D1*
X-4270500D1*
Y-1503500D2*
D16*
X-3570500D1*
X330200Y838580D2*
D10*
X177800D1*
X330200Y431420D2*
Y838580D1*
Y431420D2*
X177800D1*
Y838580D1*
X330200Y-431420D2*
X177800D1*
X330200Y-838580D2*
Y-431420D1*
Y-838580D2*
X177800D1*
Y-431420D1*
X875920Y-431800D2*
Y-584200D1*
X1283080Y-431800D2*
X875920D1*
X1283080D2*
Y-584200D1*
X875920D1*
Y-939800D2*
Y-1092200D1*
X1283080Y-939800D2*
X875920D1*
X1283080D2*
Y-1092200D1*
X875920D1*
X3271000Y-1266000D2*
Y-266000D1*
X2571000D1*
Y-1266000D1*
X3271000D1*
Y-766000D2*
D16*
X2571000D1*
X3810000Y635000D2*
D10*
G02X3810000Y635000I190500J0D01*
G01*
X3873513D2*
G02X3873513Y635000I126987J0D01*
G01*
X3841737D2*
G02X3841737Y635000I158763J0D01*
G01*
X1279380Y-1526000D2*
Y-1544000D1*
Y-1758000D2*
Y-1776000D1*
X879620Y-1758000D2*
Y-1776000D1*
Y-1526000D2*
Y-1544000D1*
X1279380Y-1776000D2*
X879620D1*
X1279380Y-1526000D2*
X879620D1*
X1575500Y249800D2*
X1345500D1*
Y760200D1*
X1575500Y334597D2*
X1345500D1*
X1575500Y760200D2*
X1345500D1*
X1575500Y249800D2*
Y760200D1*
X964500Y766200D2*
X1194500D1*
Y255800D1*
X964500Y681403D2*
X1194500D1*
X964500Y255800D2*
X1194500D1*
X964500Y766200D2*
Y255800D1*
X4254500Y-3556000D2*
G02X4254500Y-3556000I190500J0D01*
G01*
X4318013D2*
G02X4318013Y-3556000I126987J0D01*
G01*
X4286237D2*
G02X4286237Y-3556000I158763J0D01*
G01*
X4032250Y381000D2*
G02X4127500Y285750I-15875J-111125D01*
G01*
Y222250D2*
G02X4032250Y127000I-111125J15875D01*
G01*
X3968750D2*
G02X3873500Y222250I15875J111125D01*
G01*
Y285750D2*
G02X3968750Y381000I111125J-15875D01*
G01*
X2768260Y1262000D2*
Y262000D1*
X2248240D2*
X2768260D1*
X2248240Y1262000D2*
Y262000D1*
Y1262000D2*
X2448240D1*
X2768260D2*
X2568260D1*
X2448240D2*
G03X2568260Y1262000I60010J10D01*
G01*
X2584450Y965607D2*
X2432050D1*
X2584450Y558393D2*
Y965607D1*
Y558393D2*
X2432050D1*
Y965607D1*
X2351993Y-364010D2*
Y-539000D1*
X1712007Y31000D2*
Y-134013D1*
X2351993Y31000D2*
Y-143990D1*
Y31000D2*
X1712007D1*
Y-373987D2*
Y-539000D1*
X2351993D2*
X2032000D1*
X1712007D2*
X2032000D1*
X-4286250Y-920750D2*
X-3524250D1*
Y1873250D1*
X-4286250D1*
Y-920750D1*
X2571000Y-1266000D2*
Y-1774000D1*
X3271000D1*
Y-1266000D1*
X2571000D1*
X3271000Y-1274000D2*
D16*
X2571000D1*
X4572000Y3302000D2*
D14*
X0D1*
X-5000000Y-2100000D2*
X-100000D1*
Y2112000D2*
Y-2112000D1*
X-5000000Y2100000D2*
X-100000D1*
G36*
X-1666250Y4842500D2*
X-586750D1*
Y4366250D1*
X-1666250D1*
Y4842500D1*
G37*
X191863Y3460468D2*
D60*
Y3613600D1*
X133576Y3460468D1*
X75288Y3613600D1*
Y3460468D1*
X326354Y3562556D2*
Y3460468D1*
Y3540656D2*
X311866Y3555312D1*
X297210Y3562556D1*
X275478D1*
X260822Y3555312D1*
X246335Y3540656D1*
X238922Y3518756D1*
Y3504268D1*
X246335Y3482368D1*
X260822Y3467881D1*
X275478Y3460468D1*
X297210D1*
X311866Y3467881D1*
X326354Y3482368D1*
X373413Y3613600D2*
X380656Y3606356D1*
X388069Y3613600D1*
X380656Y3621012D1*
X373413Y3613600D1*
X380656Y3562556D2*
Y3460468D1*
X435128Y3562556D2*
Y3460468D1*
Y3533412D2*
X457028Y3555312D1*
X471684Y3562556D1*
X493415D1*
X508071Y3555312D1*
X515315Y3533412D1*
Y3460468D1*
X642562Y3540656D2*
X635318Y3555312D1*
X613418Y3562556D1*
X591518D1*
X569618Y3555312D1*
X562374Y3540656D1*
X569618Y3526168D1*
X584274Y3518756D1*
X620662Y3511512D1*
X635318Y3504268D1*
X642562Y3489612D1*
Y3482368D1*
X635318Y3467881D1*
X613418Y3460468D1*
X591518D1*
X569618Y3467881D1*
X562374Y3482368D1*
X939844Y3591700D2*
X925356Y3606356D1*
X903456Y3613600D1*
X874313D1*
X852413Y3606356D1*
X837756Y3591700D1*
Y3577212D1*
X845169Y3562556D1*
X852413Y3555312D1*
X866900Y3548068D1*
X910700Y3533412D1*
X925356Y3526168D1*
X932600Y3518756D1*
X939844Y3504268D1*
Y3482368D1*
X925356Y3467881D1*
X903456Y3460468D1*
X874313D1*
X852413Y3467881D1*
X837756Y3482368D1*
X986903Y3518756D2*
X1074334D1*
Y3533412D1*
X1067091Y3548068D1*
X1059847Y3555312D1*
X1045191Y3562556D1*
X1023291D1*
X1008803Y3555312D1*
X994147Y3540656D1*
X986903Y3518756D1*
Y3504268D1*
X994147Y3482368D1*
X1008803Y3467881D1*
X1023291Y3460468D1*
X1045191D1*
X1059847Y3467881D1*
X1074334Y3482368D1*
X1121393Y3562556D2*
Y3460468D1*
Y3533412D2*
X1143293Y3555312D1*
X1157949Y3562556D1*
X1179681D1*
X1194337Y3555312D1*
X1201581Y3533412D1*
Y3460468D1*
X1328827Y3540656D2*
X1321584Y3555312D1*
X1299684Y3562556D1*
X1277784D1*
X1255884Y3555312D1*
X1248640Y3540656D1*
X1255884Y3526168D1*
X1270540Y3518756D1*
X1306927Y3511512D1*
X1321584Y3504268D1*
X1328827Y3489612D1*
Y3482368D1*
X1321584Y3467881D1*
X1299684Y3460468D1*
X1277784D1*
X1255884Y3467881D1*
X1248640Y3482368D1*
X1412274Y3562556D2*
X1397786Y3555312D1*
X1383130Y3540656D1*
X1375886Y3518756D1*
Y3504268D1*
X1383130Y3482368D1*
X1397786Y3467881D1*
X1412274Y3460468D1*
X1434174D1*
X1448830Y3467881D1*
X1463318Y3482368D1*
X1470730Y3504268D1*
Y3518756D1*
X1463318Y3540656D1*
X1448830Y3555312D1*
X1434174Y3562556D1*
X1412274D1*
X1517789D2*
Y3460468D1*
Y3518756D2*
X1525201Y3540656D1*
X1539689Y3555312D1*
X1554345Y3562556D1*
X1576245D1*
X1888184Y3460468D2*
X1829727Y3613600D1*
X1771440Y3460468D1*
X1793340Y3511512D2*
X1866284D1*
X2015430Y3540656D2*
X2008186Y3555312D1*
X1986286Y3562556D1*
X1964386D1*
X1942486Y3555312D1*
X1935242Y3540656D1*
X1942486Y3526168D1*
X1957142Y3518756D1*
X1993530Y3511512D1*
X2008186Y3504268D1*
X2015430Y3489612D1*
Y3482368D1*
X2008186Y3467881D1*
X1986286Y3460468D1*
X1964386D1*
X1942486Y3467881D1*
X1935242Y3482368D1*
X2142677Y3540656D2*
X2135433Y3555312D1*
X2113533Y3562556D1*
X2091633D1*
X2069733Y3555312D1*
X2062489Y3540656D1*
X2069733Y3526168D1*
X2084389Y3518756D1*
X2120777Y3511512D1*
X2135433Y3504268D1*
X2142677Y3489612D1*
Y3482368D1*
X2135433Y3467881D1*
X2113533Y3460468D1*
X2091633D1*
X2069733Y3467881D1*
X2062489Y3482368D1*
X2197148Y3562556D2*
X2240779Y3460468D1*
X2226292Y3431325D1*
X2211635Y3416668D1*
X2197148Y3409425D1*
X2189735D1*
X2284579Y3562556D2*
X2240779Y3460468D1*
X2479774Y3536950D2*
X2564005D1*
X2759199Y3613600D2*
X2817487Y3460468D1*
X2875775Y3613600D1*
X2959221Y3562556D2*
X2944733Y3555312D1*
X2930077Y3540656D1*
X2922833Y3518756D1*
Y3504268D1*
X2930077Y3482368D1*
X2944733Y3467881D1*
X2959221Y3460468D1*
X2981121D1*
X2995777Y3467881D1*
X3010265Y3482368D1*
X3017677Y3504268D1*
Y3518756D1*
X3010265Y3540656D1*
X2995777Y3555312D1*
X2981121Y3562556D1*
X2959221D1*
X3064736Y3613600D2*
Y3460468D1*
X3133695Y3613600D2*
Y3489612D1*
X3140939Y3467881D1*
X3155595Y3460468D1*
X3170083D1*
X3111795Y3562556D2*
X3162839D1*
X3304573D2*
Y3460468D1*
Y3540656D2*
X3290085Y3555312D1*
X3275429Y3562556D1*
X3253697D1*
X3239041Y3555312D1*
X3224554Y3540656D1*
X3217141Y3518756D1*
Y3504268D1*
X3224554Y3482368D1*
X3239041Y3467881D1*
X3253697Y3460468D1*
X3275429D1*
X3290085Y3467881D1*
X3304573Y3482368D1*
X3439063Y3555312D2*
Y3438568D1*
X3431819Y3416837D1*
X3424576Y3409425D1*
X3409919Y3402181D1*
X3388019D1*
X3373532Y3409425D1*
X3439063Y3533412D2*
X3424576Y3547900D1*
X3409919Y3555312D1*
X3388019D1*
X3373532Y3547900D1*
X3358876Y3533412D1*
X3351632Y3511512D1*
Y3496856D1*
X3358876Y3475125D1*
X3373532Y3460468D1*
X3388019Y3453225D1*
X3409919D1*
X3424576Y3460468D1*
X3439063Y3475125D1*
X3486122Y3518756D2*
X3573554D1*
Y3533412D1*
X3566310Y3548068D1*
X3559066Y3555312D1*
X3544410Y3562556D1*
X3522510D1*
X3508022Y3555312D1*
X3493366Y3540656D1*
X3486122Y3518756D1*
Y3504268D1*
X3493366Y3482368D1*
X3508022Y3467881D1*
X3522510Y3460468D1*
X3544410D1*
X3559066Y3467881D1*
X3573554Y3482368D1*
X3870836Y3591700D2*
X3856348Y3606356D1*
X3834448Y3613600D1*
X3805304D1*
X3783404Y3606356D1*
X3768748Y3591700D1*
Y3577212D1*
X3776160Y3562556D1*
X3783404Y3555312D1*
X3797892Y3548068D1*
X3841692Y3533412D1*
X3856348Y3526168D1*
X3863592Y3518756D1*
X3870836Y3504268D1*
Y3482368D1*
X3856348Y3467881D1*
X3834448Y3460468D1*
X3805304D1*
X3783404Y3467881D1*
X3768748Y3482368D1*
X3917895Y3518756D2*
X4005326D1*
Y3533412D1*
X3998082Y3548068D1*
X3990839Y3555312D1*
X3976182Y3562556D1*
X3954282D1*
X3939795Y3555312D1*
X3925139Y3540656D1*
X3917895Y3518756D1*
Y3504268D1*
X3925139Y3482368D1*
X3939795Y3467881D1*
X3954282Y3460468D1*
X3976182D1*
X3990839Y3467881D1*
X4005326Y3482368D1*
X4052385Y3562556D2*
Y3460468D1*
Y3533412D2*
X4074285Y3555312D1*
X4088941Y3562556D1*
X4110673D1*
X4125329Y3555312D1*
X4132573Y3533412D1*
Y3460468D1*
X4259819Y3540656D2*
X4252575Y3555312D1*
X4230675Y3562556D1*
X4208775D1*
X4186875Y3555312D1*
X4179632Y3540656D1*
X4186875Y3526168D1*
X4201532Y3518756D1*
X4237919Y3511512D1*
X4252575Y3504268D1*
X4259819Y3489612D1*
Y3482368D1*
X4252575Y3467881D1*
X4230675Y3460468D1*
X4208775D1*
X4186875Y3467881D1*
X4179632Y3482368D1*
X4343266Y3562556D2*
X4328778Y3555312D1*
X4314122Y3540656D1*
X4306878Y3518756D1*
Y3504268D1*
X4314122Y3482368D1*
X4328778Y3467881D1*
X4343266Y3460468D1*
X4365166D1*
X4379822Y3467881D1*
X4394310Y3482368D1*
X4401722Y3504268D1*
Y3518756D1*
X4394310Y3540656D1*
X4379822Y3555312D1*
X4365166Y3562556D1*
X4343266D1*
X4448781D2*
Y3460468D1*
Y3518756D2*
X4456193Y3540656D1*
X4470681Y3555312D1*
X4485337Y3562556D1*
X4507237D1*
X254001Y3141728D2*
D59*
X302574Y3014119D1*
X351147Y3141728D1*
X390362Y3117301D2*
X402576Y3123478D1*
X420826Y3141588D1*
Y3014119D1*
X466078Y3026332D2*
X460042Y3020155D1*
X466078Y3014119D1*
X472255Y3020155D1*
X466078Y3026332D1*
X547971Y3141588D2*
X529721Y3135551D1*
X517507Y3117301D1*
X511471Y3086978D1*
Y3068728D1*
X517507Y3038405D1*
X529721Y3020155D1*
X547971Y3014119D1*
X560044D1*
X578294Y3020155D1*
X590367Y3038405D1*
X596544Y3068728D1*
Y3086978D1*
X590367Y3117301D1*
X578294Y3135551D1*
X560044Y3141588D1*
X547971D1*
X590367Y3117301D2*
X517507Y3038405D1*
X641936Y3111265D2*
Y3117301D1*
X647973Y3129515D1*
X654009Y3135551D1*
X666223Y3141588D1*
X690509D1*
X702583Y3135551D1*
X708619Y3129515D1*
X714796Y3117301D1*
Y3105228D1*
X708619Y3093015D1*
X696546Y3074905D1*
X635759Y3014119D1*
X720833D1*
X968568Y3141728D2*
Y3014119D1*
X883495Y3141728D1*
Y3014119D1*
X1038107Y3099192D2*
X1026033Y3093155D1*
X1013820Y3080942D1*
X1007783Y3062692D1*
Y3050619D1*
X1013820Y3032369D1*
X1026033Y3020296D1*
X1038107Y3014119D1*
X1056357D1*
X1068570Y3020296D1*
X1080643Y3032369D1*
X1086820Y3050619D1*
Y3062692D1*
X1080643Y3080942D1*
X1068570Y3093155D1*
X1056357Y3099192D1*
X1038107D1*
X1126036D2*
X1162536Y3014119D1*
X1198895Y3099192D1*
X1238111Y3062692D2*
X1310971D1*
Y3074905D1*
X1304934Y3087119D1*
X1298898Y3093155D1*
X1286684Y3099192D1*
X1268434D1*
X1256361Y3093155D1*
X1244148Y3080942D1*
X1238111Y3062692D1*
Y3050619D1*
X1244148Y3032369D1*
X1256361Y3020296D1*
X1268434Y3014119D1*
X1286684D1*
X1298898Y3020296D1*
X1310971Y3032369D1*
X1350186Y3099192D2*
Y3014119D1*
Y3074905D2*
X1368436Y3093155D1*
X1380650Y3099192D1*
X1398759D1*
X1410973Y3093155D1*
X1417009Y3074905D1*
Y3014119D1*
Y3074905D2*
X1435259Y3093155D1*
X1447473Y3099192D1*
X1465582D1*
X1477796Y3093155D1*
X1483973Y3074905D1*
Y3014119D1*
X1523189Y3141728D2*
Y3014119D1*
Y3080942D2*
X1535402Y3093155D1*
X1547475Y3099192D1*
X1565725D1*
X1577798Y3093155D1*
X1590012Y3080942D1*
X1596048Y3062692D1*
Y3050619D1*
X1590012Y3032369D1*
X1577798Y3020296D1*
X1565725Y3014119D1*
X1547475D1*
X1535402Y3020296D1*
X1523189Y3032369D1*
X1635264Y3062692D2*
X1708123D1*
Y3074905D1*
X1702087Y3087119D1*
X1696050Y3093155D1*
X1683837Y3099192D1*
X1665587D1*
X1653514Y3093155D1*
X1641300Y3080942D1*
X1635264Y3062692D1*
Y3050619D1*
X1641300Y3032369D1*
X1653514Y3020296D1*
X1665587Y3014119D1*
X1683837D1*
X1696050Y3020296D1*
X1708123Y3032369D1*
X1747339Y3099192D2*
Y3014119D1*
Y3062692D2*
X1753516Y3080942D1*
X1765589Y3093155D1*
X1777803Y3099192D1*
X1796053D1*
X1964892Y3111265D2*
Y3117301D1*
X1970928Y3129515D1*
X1976965Y3135551D1*
X1989178Y3141588D1*
X2013465D1*
X2025538Y3135551D1*
X2031574Y3129515D1*
X2037751Y3117301D1*
Y3105228D1*
X2031574Y3093015D1*
X2019501Y3074905D1*
X1958715Y3014119D1*
X2043788D1*
X2119503Y3141588D2*
X2101253Y3135551D1*
X2089040Y3117301D1*
X2083003Y3086978D1*
Y3068728D1*
X2089040Y3038405D1*
X2101253Y3020155D1*
X2119503Y3014119D1*
X2131577D1*
X2149827Y3020155D1*
X2161900Y3038405D1*
X2168077Y3068728D1*
Y3086978D1*
X2161900Y3117301D1*
X2149827Y3135551D1*
X2131577Y3141588D1*
X2119503D1*
X2161900Y3117301D2*
X2089040Y3038405D1*
X2213469Y3111265D2*
Y3117301D1*
X2219506Y3129515D1*
X2225542Y3135551D1*
X2237756Y3141588D1*
X2262042D1*
X2274115Y3135551D1*
X2280152Y3129515D1*
X2286329Y3117301D1*
Y3105228D1*
X2280152Y3093015D1*
X2268079Y3074905D1*
X2207292Y3014119D1*
X2292365D1*
X2337758Y3111265D2*
Y3117301D1*
X2343794Y3129515D1*
X2349831Y3135551D1*
X2362044Y3141588D1*
X2386331D1*
X2398404Y3135551D1*
X2404441Y3129515D1*
X2410618Y3117301D1*
Y3105228D1*
X2404441Y3093015D1*
X2392368Y3074905D1*
X2331581Y3014119D1*
X2416654D1*
X345110Y2857405D2*
X339074Y2869478D1*
X326860Y2881692D1*
X314787Y2887728D1*
X290501D1*
X278287Y2881692D1*
X266214Y2869478D1*
X260037Y2857405D1*
X254001Y2839155D1*
Y2808692D1*
X260037Y2790582D1*
X266214Y2778369D1*
X278287Y2766296D1*
X290501Y2760119D1*
X314787D1*
X326860Y2766296D1*
X339074Y2778369D1*
X345110Y2790582D1*
X414649Y2845192D2*
X402576Y2839155D1*
X390362Y2826942D1*
X384326Y2808692D1*
Y2796619D1*
X390362Y2778369D1*
X402576Y2766296D1*
X414649Y2760119D1*
X432899D1*
X445112Y2766296D1*
X457186Y2778369D1*
X463362Y2796619D1*
Y2808692D1*
X457186Y2826942D1*
X445112Y2839155D1*
X432899Y2845192D1*
X414649D1*
X502578D2*
Y2717582D1*
Y2826942D2*
X514792Y2839015D1*
X526865Y2845192D1*
X545115D1*
X557328Y2839015D1*
X569401Y2826942D1*
X575578Y2808692D1*
Y2796478D1*
X569401Y2778369D1*
X557328Y2766155D1*
X545115Y2760119D1*
X526865D1*
X514792Y2766155D1*
X502578Y2778369D1*
X620971Y2845192D2*
X657330Y2760119D1*
X645257Y2735832D1*
X633044Y2723619D1*
X620971Y2717582D1*
X614794D1*
X693830Y2845192D2*
X657330Y2760119D1*
X733046Y2845192D2*
Y2760119D1*
Y2808692D2*
X739223Y2826942D1*
X751296Y2839155D1*
X763509Y2845192D1*
X781759D1*
X820975Y2887728D2*
X827012Y2881692D1*
X833189Y2887728D1*
X827012Y2893905D1*
X820975Y2887728D1*
X827012Y2845192D2*
Y2760119D1*
X945264Y2839155D2*
Y2741869D1*
X939227Y2723759D1*
X933191Y2717582D1*
X920977Y2711546D1*
X902727D1*
X890654Y2717582D1*
X945264Y2820905D2*
X933191Y2832978D1*
X920977Y2839155D1*
X902727D1*
X890654Y2832978D1*
X878441Y2820905D1*
X872404Y2802655D1*
Y2790442D1*
X878441Y2772332D1*
X890654Y2760119D1*
X902727Y2754082D1*
X920977D1*
X933191Y2760119D1*
X945264Y2772332D1*
X984480Y2887728D2*
Y2760119D1*
Y2820905D2*
X1002730Y2839155D1*
X1014943Y2845192D1*
X1033193D1*
X1045266Y2839155D1*
X1051303Y2820905D1*
Y2760119D1*
X1108768Y2887728D2*
Y2784405D1*
X1114805Y2766296D1*
X1127018Y2760119D1*
X1139091D1*
X1090518Y2845192D2*
X1133055D1*
X1344290Y2920999D2*
X1332077Y2908926D1*
X1320004Y2890676D1*
X1307790Y2866390D1*
X1301754Y2835926D1*
Y2811640D1*
X1307790Y2781317D1*
X1320004Y2757030D1*
X1332077Y2738780D1*
X1344290Y2726707D1*
X1474615Y2857405D2*
X1468579Y2869478D1*
X1456365Y2881692D1*
X1444292Y2887728D1*
X1420006D1*
X1407792Y2881692D1*
X1395719Y2869478D1*
X1389542Y2857405D1*
X1383506Y2839155D1*
Y2808692D1*
X1389542Y2790582D1*
X1395719Y2778369D1*
X1407792Y2766296D1*
X1420006Y2760119D1*
X1444292D1*
X1456365Y2766296D1*
X1468579Y2778369D1*
X1474615Y2790582D1*
X1513831Y2920999D2*
X1526045Y2908926D1*
X1538118Y2890676D1*
X1550331Y2866390D1*
X1556368Y2835926D1*
Y2811640D1*
X1550331Y2781317D1*
X1538118Y2757030D1*
X1526045Y2738780D1*
X1513831Y2726707D1*
X1816316Y2760119D2*
X1767603Y2887728D1*
X1719030Y2760119D1*
X1737280Y2802655D2*
X1798066D1*
X1855532Y2887728D2*
Y2760119D1*
X1900925Y2845192D2*
X1937284Y2760119D1*
X1925211Y2735832D1*
X1912998Y2723619D1*
X1900925Y2717582D1*
X1894748D1*
X1973784Y2845192D2*
X1937284Y2760119D1*
X2079823Y2826942D2*
X2073786Y2839155D1*
X2055536Y2845192D1*
X2037286D1*
X2019036Y2839155D1*
X2013000Y2826942D1*
X2019036Y2814869D1*
X2031250Y2808692D1*
X2061573Y2802655D1*
X2073786Y2796619D1*
X2079823Y2784405D1*
Y2778369D1*
X2073786Y2766296D1*
X2055536Y2760119D1*
X2037286D1*
X2019036Y2766296D1*
X2013000Y2778369D1*
X2185862Y2826942D2*
X2179825Y2839155D1*
X2161575Y2845192D1*
X2143325D1*
X2125075Y2839155D1*
X2119039Y2826942D1*
X2125075Y2814869D1*
X2137289Y2808692D1*
X2167612Y2802655D1*
X2179825Y2796619D1*
X2185862Y2784405D1*
Y2778369D1*
X2179825Y2766296D1*
X2161575Y2760119D1*
X2143325D1*
X2125075Y2766296D1*
X2119039Y2778369D1*
X2255401Y2845192D2*
X2243327Y2839155D1*
X2231114Y2826942D1*
X2225077Y2808692D1*
Y2796619D1*
X2231114Y2778369D1*
X2243327Y2766296D1*
X2255401Y2760119D1*
X2273651D1*
X2285864Y2766296D1*
X2297937Y2778369D1*
X2304114Y2796619D1*
Y2808692D1*
X2297937Y2826942D1*
X2285864Y2839155D1*
X2273651Y2845192D1*
X2255401D1*
X2343330D2*
Y2760119D1*
Y2820905D2*
X2361580Y2839155D1*
X2373793Y2845192D1*
X2391903D1*
X2404116Y2839155D1*
X2410153Y2820905D1*
Y2760119D1*
X2572815Y2826942D2*
X2627425D1*
X2645675Y2833119D1*
X2651851Y2839155D1*
X2657888Y2851228D1*
Y2863442D1*
X2651851Y2875515D1*
X2645675Y2881692D1*
X2627425Y2887728D1*
X2572815D1*
Y2760119D1*
X2615351Y2826942D2*
X2657888Y2760119D1*
X2727427Y2845192D2*
X2715354Y2839155D1*
X2703140Y2826942D1*
X2697104Y2808692D1*
Y2796619D1*
X2703140Y2778369D1*
X2715354Y2766296D1*
X2727427Y2760119D1*
X2745677D1*
X2757890Y2766296D1*
X2769963Y2778369D1*
X2776140Y2796619D1*
Y2808692D1*
X2769963Y2826942D1*
X2757890Y2839155D1*
X2745677Y2845192D1*
X2727427D1*
X2815356D2*
X2839642Y2760119D1*
X2863929Y2845192D1*
X2888216Y2760119D1*
X2912502Y2845192D1*
X3024577D2*
Y2760119D1*
Y2826942D2*
X3012504Y2839155D1*
X3000291Y2845192D1*
X2982181D1*
X2969968Y2839155D1*
X2957895Y2826942D1*
X2951718Y2808692D1*
Y2796619D1*
X2957895Y2778369D1*
X2969968Y2766296D1*
X2982181Y2760119D1*
X3000291D1*
X3012504Y2766296D1*
X3024577Y2778369D1*
X3063793Y2845192D2*
Y2760119D1*
Y2820905D2*
X3082043Y2839155D1*
X3094257Y2845192D1*
X3112366D1*
X3124580Y2839155D1*
X3130616Y2820905D1*
Y2760119D1*
X3182045Y2766155D2*
X3175868Y2760119D1*
X3169832Y2766155D1*
X3175868Y2772332D1*
X3182045Y2766155D1*
Y2754082D1*
X3175868Y2741869D1*
X3169832Y2735832D1*
X3350884Y2857265D2*
Y2863301D1*
X3356921Y2875515D1*
X3362957Y2881551D1*
X3375171Y2887588D1*
X3399457D1*
X3411530Y2881551D1*
X3417567Y2875515D1*
X3423744Y2863301D1*
Y2851228D1*
X3417567Y2839015D1*
X3405494Y2820905D1*
X3344707Y2760119D1*
X3429780D1*
X3505496Y2887588D2*
X3487246Y2881551D1*
X3475033Y2863301D1*
X3468996Y2832978D1*
Y2814728D1*
X3475033Y2784405D1*
X3487246Y2766155D1*
X3505496Y2760119D1*
X3517569D1*
X3535819Y2766155D1*
X3547892Y2784405D1*
X3554069Y2814728D1*
Y2832978D1*
X3547892Y2863301D1*
X3535819Y2881551D1*
X3517569Y2887588D1*
X3505496D1*
X3547892Y2863301D2*
X3475033Y2784405D1*
X3599462Y2857265D2*
Y2863301D1*
X3605498Y2875515D1*
X3611535Y2881551D1*
X3623748Y2887588D1*
X3648035D1*
X3660108Y2881551D1*
X3666145Y2875515D1*
X3672321Y2863301D1*
Y2851228D1*
X3666145Y2839015D1*
X3654071Y2820905D1*
X3593285Y2760119D1*
X3678358D1*
X3723751Y2857265D2*
Y2863301D1*
X3729787Y2875515D1*
X3735824Y2881551D1*
X3748037Y2887588D1*
X3772324D1*
X3784397Y2881551D1*
X3790433Y2875515D1*
X3796610Y2863301D1*
Y2851228D1*
X3790433Y2839015D1*
X3778360Y2820905D1*
X3717574Y2760119D1*
X3802647D1*
X326860Y2464192D2*
Y2379119D1*
Y2445942D2*
X314787Y2458155D1*
X302574Y2464192D1*
X284464D1*
X272251Y2458155D1*
X260178Y2445942D1*
X254001Y2427692D1*
Y2415619D1*
X260178Y2397369D1*
X272251Y2385296D1*
X284464Y2379119D1*
X302574D1*
X314787Y2385296D1*
X326860Y2397369D1*
X366076Y2506728D2*
Y2379119D1*
X411468Y2464192D2*
X447828Y2379119D1*
X435755Y2354832D1*
X423542Y2342619D1*
X411468Y2336582D1*
X405292D1*
X484328Y2464192D2*
X447828Y2379119D1*
X590367Y2445942D2*
X584330Y2458155D1*
X566080Y2464192D1*
X547830D1*
X529580Y2458155D1*
X523544Y2445942D1*
X529580Y2433869D1*
X541794Y2427692D1*
X572117Y2421655D1*
X584330Y2415619D1*
X590367Y2403405D1*
Y2397369D1*
X584330Y2385296D1*
X566080Y2379119D1*
X547830D1*
X529580Y2385296D1*
X523544Y2397369D1*
X696406Y2445942D2*
X690369Y2458155D1*
X672119Y2464192D1*
X653869D1*
X635619Y2458155D1*
X629583Y2445942D1*
X635619Y2433869D1*
X647833Y2427692D1*
X678156Y2421655D1*
X690369Y2415619D1*
X696406Y2403405D1*
Y2397369D1*
X690369Y2385296D1*
X672119Y2379119D1*
X653869D1*
X635619Y2385296D1*
X629583Y2397369D1*
X765944Y2464192D2*
X753871Y2458155D1*
X741658Y2445942D1*
X735621Y2427692D1*
Y2415619D1*
X741658Y2397369D1*
X753871Y2385296D1*
X765944Y2379119D1*
X784194D1*
X796408Y2385296D1*
X808481Y2397369D1*
X814658Y2415619D1*
Y2427692D1*
X808481Y2445942D1*
X796408Y2458155D1*
X784194Y2464192D1*
X765944D1*
X853874D2*
Y2379119D1*
Y2439905D2*
X872124Y2458155D1*
X884337Y2464192D1*
X902447D1*
X914660Y2458155D1*
X920697Y2439905D1*
Y2379119D1*
X959912Y2464192D2*
Y2379119D1*
Y2427692D2*
X966089Y2445942D1*
X978162Y2458155D1*
X990376Y2464192D1*
X1008626D1*
X1078165D2*
X1066091Y2458155D1*
X1053878Y2445942D1*
X1047841Y2427692D1*
Y2415619D1*
X1053878Y2397369D1*
X1066091Y2385296D1*
X1078165Y2379119D1*
X1096415D1*
X1108628Y2385296D1*
X1120701Y2397369D1*
X1126878Y2415619D1*
Y2427692D1*
X1120701Y2445942D1*
X1108628Y2458155D1*
X1096415Y2464192D1*
X1078165D1*
X1166094D2*
X1190380Y2379119D1*
X1214667Y2464192D1*
X1238953Y2379119D1*
X1263240Y2464192D1*
X1375315D2*
Y2379119D1*
Y2445942D2*
X1363242Y2458155D1*
X1351029Y2464192D1*
X1332919D1*
X1320706Y2458155D1*
X1308632Y2445942D1*
X1302456Y2427692D1*
Y2415619D1*
X1308632Y2397369D1*
X1320706Y2385296D1*
X1332919Y2379119D1*
X1351029D1*
X1363242Y2385296D1*
X1375315Y2397369D1*
X1414531Y2464192D2*
Y2379119D1*
Y2439905D2*
X1432781Y2458155D1*
X1444994Y2464192D1*
X1463104D1*
X1475317Y2458155D1*
X1481354Y2439905D1*
Y2379119D1*
X1587393Y2476265D2*
X1569143D1*
X1557070Y2470228D1*
X1550893Y2464192D1*
X1544856Y2451978D1*
Y2427692D1*
X1550893Y2421655D1*
X1563106D1*
X1587393Y2427692D1*
X1593429Y2415619D1*
X1599466D1*
X1611679Y2427692D1*
X1617716Y2458015D1*
X1611679Y2476265D1*
X1605643Y2488478D1*
X1593429Y2500551D1*
X1581356Y2506588D1*
X1557070D1*
X1544856Y2500551D1*
X1532783Y2488478D1*
X1526606Y2476265D1*
X1520570Y2458015D1*
Y2427692D1*
X1526606Y2409442D1*
X1532783Y2397369D1*
X1544856Y2385155D1*
X1557070Y2379119D1*
X1581356D1*
X1593429Y2385155D1*
X1605643Y2397369D1*
X1587393Y2482301D2*
Y2427692D1*
X1729791Y2458155D2*
Y2360869D1*
X1723755Y2342759D1*
X1717718Y2336582D1*
X1705505Y2330546D1*
X1687255D1*
X1675181Y2336582D1*
X1729791Y2439905D2*
X1717718Y2451978D1*
X1705505Y2458155D1*
X1687255D1*
X1675181Y2451978D1*
X1662968Y2439905D1*
X1656931Y2421655D1*
Y2409442D1*
X1662968Y2391332D1*
X1675181Y2379119D1*
X1687255Y2373082D1*
X1705505D1*
X1717718Y2379119D1*
X1729791Y2391332D1*
X1769007Y2464192D2*
Y2379119D1*
Y2439905D2*
X1787257Y2458155D1*
X1799470Y2464192D1*
X1817580D1*
X1829793Y2458155D1*
X1835830Y2439905D1*
Y2379119D1*
Y2439905D2*
X1854080Y2458155D1*
X1866293Y2464192D1*
X1884403D1*
X1896616Y2458155D1*
X1902793Y2439905D1*
Y2379119D1*
X2014869Y2464192D2*
Y2379119D1*
Y2445942D2*
X2002795Y2458155D1*
X1990582Y2464192D1*
X1972472D1*
X1960259Y2458155D1*
X1948186Y2445942D1*
X1942009Y2427692D1*
Y2415619D1*
X1948186Y2397369D1*
X1960259Y2385296D1*
X1972472Y2379119D1*
X1990582D1*
X2002795Y2385296D1*
X2014869Y2397369D1*
X2054084Y2506728D2*
X2060121Y2500692D1*
X2066298Y2506728D1*
X2060121Y2512905D1*
X2054084Y2506728D1*
X2060121Y2464192D2*
Y2379119D1*
X2105513Y2506728D2*
Y2379119D1*
X2150766Y2391332D2*
X2144729Y2385155D1*
X2150766Y2379119D1*
X2156943Y2385155D1*
X2150766Y2391332D1*
X2269158Y2445942D2*
X2256945Y2458155D1*
X2244731Y2464192D1*
X2226622D1*
X2214408Y2458155D1*
X2202335Y2445942D1*
X2196158Y2427692D1*
Y2415619D1*
X2202335Y2397369D1*
X2214408Y2385296D1*
X2226622Y2379119D1*
X2244731D1*
X2256945Y2385296D1*
X2269158Y2397369D1*
X2338697Y2464192D2*
X2326624Y2458155D1*
X2314410Y2445942D1*
X2308374Y2427692D1*
Y2415619D1*
X2314410Y2397369D1*
X2326624Y2385296D1*
X2338697Y2379119D1*
X2356947D1*
X2369160Y2385296D1*
X2381234Y2397369D1*
X2387410Y2415619D1*
Y2427692D1*
X2381234Y2445942D1*
X2369160Y2458155D1*
X2356947Y2464192D1*
X2338697D1*
X2426626D2*
Y2379119D1*
Y2439905D2*
X2444876Y2458155D1*
X2457090Y2464192D1*
X2475199D1*
X2487413Y2458155D1*
X2493449Y2439905D1*
Y2379119D1*
Y2439905D2*
X2511699Y2458155D1*
X2523913Y2464192D1*
X2542022D1*
X2554236Y2458155D1*
X2560413Y2439905D1*
Y2379119D1*
X-4448561Y2467080D2*
D61*
Y2620211D1*
X-4506849Y2467080D1*
X-4565137Y2620211D1*
Y2467080D1*
X-4265151D2*
X-4323607Y2620211D1*
X-4381895Y2467080D1*
X-4359995Y2518124D2*
X-4287051D1*
X-4198484Y2620211D2*
Y2467080D1*
X-4029730Y2620211D2*
Y2467080D1*
X-4131817Y2620211D1*
Y2467080D1*
X-3860975Y2598311D2*
X-3875463Y2612967D1*
X-3897363Y2620211D1*
X-3926507D1*
X-3948407Y2612967D1*
X-3963063Y2598311D1*
Y2583824D1*
X-3955651Y2569167D1*
X-3948407Y2561924D1*
X-3933919Y2554680D1*
X-3890119Y2540024D1*
X-3875463Y2532780D1*
X-3868219Y2525367D1*
X-3860975Y2510880D1*
Y2488980D1*
X-3875463Y2474492D1*
X-3897363Y2467080D1*
X-3926507D1*
X-3948407Y2474492D1*
X-3963063Y2488980D1*
X-3626565Y2620211D2*
X-3568277Y2467080D1*
X-3509990Y2620211D1*
X-3399523D2*
X-3414179Y2612967D1*
X-3428667Y2598311D1*
X-3436079Y2583824D1*
X-3443323Y2561924D1*
Y2525367D1*
X-3436079Y2503636D1*
X-3428667Y2488980D1*
X-3414179Y2474492D1*
X-3399523Y2467080D1*
X-3370379D1*
X-3355892Y2474492D1*
X-3341235Y2488980D1*
X-3333992Y2503636D1*
X-3326748Y2525367D1*
Y2561924D1*
X-3333992Y2583824D1*
X-3341235Y2598311D1*
X-3355892Y2612967D1*
X-3370379Y2620211D1*
X-3399523D1*
X-3260081D2*
Y2467080D1*
X-3172649D1*
X-3054939Y2620211D2*
Y2467080D1*
X-3105983Y2620211D2*
X-3003895D1*
X-2820485Y2467080D2*
X-2878941Y2620211D1*
X-2937228Y2467080D1*
X-2915328Y2518124D2*
X-2842385D1*
X-2644486Y2583824D2*
X-2651730Y2598311D1*
X-2666386Y2612967D1*
X-2680874Y2620211D1*
X-2710018D1*
X-2724674Y2612967D1*
X-2739162Y2598311D1*
X-2746574Y2583824D1*
X-2753818Y2561924D1*
Y2525367D1*
X-2746574Y2503636D1*
X-2739162Y2488980D1*
X-2724674Y2474492D1*
X-2710018Y2467080D1*
X-2680874D1*
X-2666386Y2474492D1*
X-2651730Y2488980D1*
X-2644486Y2503636D1*
Y2525367D1*
X-2680874D1*
X-2483144Y2620211D2*
X-2577820D1*
Y2467080D1*
X-2483144D1*
X-2577820Y2547267D2*
X-2519532D1*
X-3947805Y2837824D2*
X-3955049Y2852311D1*
X-3969705Y2866967D1*
X-3984193Y2874211D1*
X-4013337D1*
X-4027993Y2866967D1*
X-4042481Y2852311D1*
X-4049893Y2837824D1*
X-4057137Y2815924D1*
Y2779367D1*
X-4049893Y2757636D1*
X-4042481Y2742980D1*
X-4027993Y2728492D1*
X-4013337Y2721080D1*
X-3984193D1*
X-3969705Y2728492D1*
X-3955049Y2742980D1*
X-3947805Y2757636D1*
X-3764395Y2721080D2*
X-3822851Y2874211D1*
X-3881138Y2721080D1*
X-3859238Y2772124D2*
X-3786295D1*
X-3697728Y2874211D2*
Y2764880D1*
X-3690484Y2742980D1*
X-3675828Y2728492D1*
X-3653928Y2721080D1*
X-3639440D1*
X-3617540Y2728492D1*
X-3602884Y2742980D1*
X-3595640Y2764880D1*
Y2874211D1*
X-3477930D2*
Y2721080D1*
X-3528974Y2874211D2*
X-3426886D1*
X-3360219D2*
Y2721080D1*
X-3249753Y2874211D2*
X-3264409Y2866967D1*
X-3278896Y2852311D1*
X-3286309Y2837824D1*
X-3293553Y2815924D1*
Y2779367D1*
X-3286309Y2757636D1*
X-3278896Y2742980D1*
X-3264409Y2728492D1*
X-3249753Y2721080D1*
X-3220609D1*
X-3206121Y2728492D1*
X-3191465Y2742980D1*
X-3184221Y2757636D1*
X-3176977Y2779367D1*
Y2815924D1*
X-3184221Y2837824D1*
X-3191465Y2852311D1*
X-3206121Y2866967D1*
X-3220609Y2874211D1*
X-3249753D1*
X-3008223D2*
Y2721080D1*
X-3110311Y2874211D1*
Y2721080D1*
X1454907Y-4578863D2*
X1440251Y-4593351D1*
X1425763Y-4615251D1*
X1411107Y-4644395D1*
X1403863Y-4680951D1*
Y-4710095D1*
X1411107Y-4746483D1*
X1425763Y-4775626D1*
X1440251Y-4797526D1*
X1454907Y-4812014D1*
X1623662Y-4640689D2*
X1609174Y-4626033D1*
X1587274Y-4618789D1*
X1558130D1*
X1536230Y-4626033D1*
X1521574Y-4640689D1*
Y-4655176D1*
X1528986Y-4669833D1*
X1536230Y-4677076D1*
X1550718Y-4684320D1*
X1594518Y-4698976D1*
X1609174Y-4706220D1*
X1616418Y-4713633D1*
X1623662Y-4728120D1*
Y-4750020D1*
X1609174Y-4764508D1*
X1587274Y-4771920D1*
X1558130D1*
X1536230Y-4764508D1*
X1521574Y-4750020D1*
X1807072Y-4771920D2*
X1748616Y-4618789D1*
X1690328Y-4771920D1*
X1712228Y-4720876D2*
X1785172D1*
X1968583Y-4618789D2*
X1873739D1*
Y-4771920D1*
Y-4691733D2*
X1932026D1*
X2129925Y-4618789D2*
X2035249D1*
Y-4771920D1*
X2129925D1*
X2035249Y-4691733D2*
X2093537D1*
X2247635Y-4618789D2*
Y-4771920D1*
X2196591Y-4618789D2*
X2298679D1*
X2365346D2*
X2423633Y-4691733D1*
Y-4771920D1*
X2481921Y-4618789D2*
X2423633Y-4691733D1*
X2825663Y-4655176D2*
X2818419Y-4640689D1*
X2803763Y-4626033D1*
X2789275Y-4618789D1*
X2760131D1*
X2745475Y-4626033D1*
X2730987Y-4640689D1*
X2723575Y-4655176D1*
X2716331Y-4677076D1*
Y-4713633D1*
X2723575Y-4735364D1*
X2730987Y-4750020D1*
X2745475Y-4764508D1*
X2760131Y-4771920D1*
X2789275D1*
X2803763Y-4764508D1*
X2818419Y-4750020D1*
X2825663Y-4735364D1*
Y-4713633D1*
X2789275D1*
X2892329Y-4691733D2*
X2957861D1*
X2979761Y-4684320D1*
X2987173Y-4677076D1*
X2994417Y-4662589D1*
Y-4647933D1*
X2987173Y-4633445D1*
X2979761Y-4626033D1*
X2957861Y-4618789D1*
X2892329D1*
Y-4771920D1*
X2943373Y-4691733D2*
X2994417Y-4771920D1*
X3104884Y-4618789D2*
X3090228Y-4626033D1*
X3075740Y-4640689D1*
X3068328Y-4655176D1*
X3061084Y-4677076D1*
Y-4713633D1*
X3068328Y-4735364D1*
X3075740Y-4750020D1*
X3090228Y-4764508D1*
X3104884Y-4771920D1*
X3134028D1*
X3148515Y-4764508D1*
X3163172Y-4750020D1*
X3170415Y-4735364D1*
X3177659Y-4713633D1*
Y-4677076D1*
X3170415Y-4655176D1*
X3163172Y-4640689D1*
X3148515Y-4626033D1*
X3134028Y-4618789D1*
X3104884D1*
X3244326D2*
Y-4728120D1*
X3251570Y-4750020D1*
X3266226Y-4764508D1*
X3288126Y-4771920D1*
X3302614D1*
X3324514Y-4764508D1*
X3339170Y-4750020D1*
X3346414Y-4728120D1*
Y-4618789D1*
X3515168D2*
Y-4771920D1*
X3413080Y-4618789D1*
Y-4771920D1*
X3581835Y-4618789D2*
Y-4771920D1*
X3632878D1*
X3654778Y-4764508D1*
X3669435Y-4750020D1*
X3676678Y-4735364D1*
X3683922Y-4713633D1*
Y-4677076D1*
X3676678Y-4655176D1*
X3669435Y-4640689D1*
X3654778Y-4626033D1*
X3632878Y-4618789D1*
X3581835D1*
X3750589Y-4578863D2*
X3765245Y-4593351D1*
X3779733Y-4615251D1*
X3794389Y-4644395D1*
X3801633Y-4680951D1*
Y-4710095D1*
X3794389Y-4746483D1*
X3779733Y-4775626D1*
X3765245Y-4797526D1*
X3750589Y-4812014D1*
X1494147Y4665119D2*
D59*
Y4792728D1*
X1445574Y4665119D1*
X1397001Y4792728D1*
Y4665119D1*
X1569862Y4792728D2*
X1557649Y4786692D1*
X1545576Y4774478D1*
X1539399Y4762405D1*
X1533362Y4744155D1*
Y4713692D1*
X1539399Y4695582D1*
X1545576Y4683369D1*
X1557649Y4671296D1*
X1569862Y4665119D1*
X1594149D1*
X1606222Y4671296D1*
X1618436Y4683369D1*
X1624472Y4695582D1*
X1630509Y4713692D1*
Y4744155D1*
X1624472Y4762405D1*
X1618436Y4774478D1*
X1606222Y4786692D1*
X1594149Y4792728D1*
X1569862D1*
X1669724D2*
Y4701619D1*
X1675761Y4683369D1*
X1687974Y4671296D1*
X1706224Y4665119D1*
X1718297D1*
X1736547Y4671296D1*
X1748761Y4683369D1*
X1754797Y4701619D1*
Y4792728D1*
X1879086D2*
Y4665119D1*
X1794013Y4792728D1*
Y4665119D1*
X1960838Y4792728D2*
Y4665119D1*
X1918302Y4792728D2*
X2003375D1*
X2042591D2*
Y4665119D1*
X2166879Y4792728D2*
Y4665119D1*
X2081806Y4792728D1*
Y4665119D1*
X2297205Y4762405D2*
X2291168Y4774478D1*
X2278955Y4786692D1*
X2266882Y4792728D1*
X2242595D1*
X2230382Y4786692D1*
X2218308Y4774478D1*
X2212132Y4762405D1*
X2206095Y4744155D1*
Y4713692D1*
X2212132Y4695582D1*
X2218308Y4683369D1*
X2230382Y4671296D1*
X2242595Y4665119D1*
X2266882D1*
X2278955Y4671296D1*
X2291168Y4683369D1*
X2297205Y4695582D1*
Y4713692D1*
X2266882D1*
X2342597Y4750192D2*
X2336420Y4744015D1*
X2342597Y4737978D1*
X2348634Y4744015D1*
X2342597Y4750192D1*
Y4677332D2*
X2336420Y4671155D1*
X2342597Y4665119D1*
X2348634Y4671155D1*
X2342597Y4677332D1*
X2572082Y4665119D2*
Y4792588D1*
X2511296Y4707655D1*
X2602406D1*
X2641621Y4750192D2*
X2708444Y4665119D1*
Y4750192D2*
X2641621Y4665119D1*
X2968253D2*
Y4792728D1*
X2919680Y4665119D1*
X2871106Y4792728D1*
Y4665119D1*
X3068255D2*
Y4792588D1*
X3007468Y4707655D1*
X3098578D1*
X1427324Y4496192D2*
X1415251Y4490155D1*
X1403037Y4477942D1*
X1397001Y4459692D1*
Y4447619D1*
X1403037Y4429369D1*
X1415251Y4417296D1*
X1427324Y4411119D1*
X1445574D1*
X1457787Y4417296D1*
X1469860Y4429369D1*
X1476037Y4447619D1*
Y4459692D1*
X1469860Y4477942D1*
X1457787Y4490155D1*
X1445574Y4496192D1*
X1427324D1*
X1515253D2*
Y4411119D1*
Y4471905D2*
X1533503Y4490155D1*
X1545716Y4496192D1*
X1563826D1*
X1576039Y4490155D1*
X1582076Y4471905D1*
Y4411119D1*
X1823775Y4496192D2*
X1817598Y4477942D1*
X1805525Y4465728D1*
X1787275Y4459692D1*
X1781238D1*
X1762988Y4465728D1*
X1750915Y4477942D1*
X1744738Y4496192D1*
Y4502228D1*
X1750915Y4520478D1*
X1762988Y4532551D1*
X1781238Y4538588D1*
X1787275D1*
X1805525Y4532551D1*
X1817598Y4520478D1*
X1823775Y4496192D1*
Y4465728D1*
X1817598Y4435405D1*
X1805525Y4417155D1*
X1787275Y4411119D1*
X1775201D1*
X1756951Y4417155D1*
X1750915Y4429369D1*
X1899490Y4538588D2*
X1881240Y4532551D1*
X1869027Y4514301D1*
X1862990Y4483978D1*
Y4465728D1*
X1869027Y4435405D1*
X1881240Y4417155D1*
X1899490Y4411119D1*
X1911563D1*
X1929813Y4417155D1*
X1941886Y4435405D1*
X1948063Y4465728D1*
Y4483978D1*
X1941886Y4514301D1*
X1929813Y4532551D1*
X1911563Y4538588D1*
X1899490D1*
X1941886Y4514301D2*
X1869027Y4435405D1*
X1987279Y4496192D2*
Y4411119D1*
Y4471905D2*
X2005529Y4490155D1*
X2017742Y4496192D1*
X2035852D1*
X2048066Y4490155D1*
X2054102Y4471905D1*
Y4411119D1*
Y4471905D2*
X2072352Y4490155D1*
X2084566Y4496192D1*
X2102675D1*
X2114889Y4490155D1*
X2121066Y4471905D1*
Y4411119D1*
X2160281Y4496192D2*
Y4411119D1*
Y4471905D2*
X2178531Y4490155D1*
X2190745Y4496192D1*
X2208854D1*
X2221068Y4490155D1*
X2227104Y4471905D1*
Y4411119D1*
Y4471905D2*
X2245354Y4490155D1*
X2257568Y4496192D1*
X2275677D1*
X2287891Y4490155D1*
X2294068Y4471905D1*
Y4411119D1*
X2456730Y4496192D2*
X2523553Y4411119D1*
Y4496192D2*
X2456730Y4411119D1*
X2765252Y4496192D2*
X2759075Y4477942D1*
X2747002Y4465728D1*
X2728752Y4459692D1*
X2722715D1*
X2704465Y4465728D1*
X2692392Y4477942D1*
X2686215Y4496192D1*
Y4502228D1*
X2692392Y4520478D1*
X2704465Y4532551D1*
X2722715Y4538588D1*
X2728752D1*
X2747002Y4532551D1*
X2759075Y4520478D1*
X2765252Y4496192D1*
Y4465728D1*
X2759075Y4435405D1*
X2747002Y4417155D1*
X2728752Y4411119D1*
X2716679D1*
X2698429Y4417155D1*
X2692392Y4429369D1*
X2840967Y4538588D2*
X2822717Y4532551D1*
X2810504Y4514301D1*
X2804467Y4483978D1*
Y4465728D1*
X2810504Y4435405D1*
X2822717Y4417155D1*
X2840967Y4411119D1*
X2853040D1*
X2871290Y4417155D1*
X2883364Y4435405D1*
X2889540Y4465728D1*
Y4483978D1*
X2883364Y4514301D1*
X2871290Y4532551D1*
X2853040Y4538588D1*
X2840967D1*
X2883364Y4514301D2*
X2810504Y4435405D1*
X2928756Y4496192D2*
Y4411119D1*
Y4471905D2*
X2947006Y4490155D1*
X2959220Y4496192D1*
X2977329D1*
X2989543Y4490155D1*
X2995579Y4471905D1*
Y4411119D1*
Y4471905D2*
X3013829Y4490155D1*
X3026043Y4496192D1*
X3044152D1*
X3056366Y4490155D1*
X3062543Y4471905D1*
Y4411119D1*
X3101758Y4496192D2*
Y4411119D1*
Y4471905D2*
X3120008Y4490155D1*
X3132222Y4496192D1*
X3150331D1*
X3162545Y4490155D1*
X3168581Y4471905D1*
Y4411119D1*
Y4471905D2*
X3186831Y4490155D1*
X3199045Y4496192D1*
X3217155D1*
X3229368Y4490155D1*
X3235545Y4471905D1*
Y4411119D1*
X3471207Y4477942D2*
X3458994Y4490155D1*
X3446780Y4496192D1*
X3428670D1*
X3416457Y4490155D1*
X3404384Y4477942D1*
X3398207Y4459692D1*
Y4447619D1*
X3404384Y4429369D1*
X3416457Y4417296D1*
X3428670Y4411119D1*
X3446780D1*
X3458994Y4417296D1*
X3471207Y4429369D1*
X3510423Y4459692D2*
X3583282D1*
Y4471905D1*
X3577246Y4484119D1*
X3571209Y4490155D1*
X3558996Y4496192D1*
X3540746D1*
X3528673Y4490155D1*
X3516459Y4477942D1*
X3510423Y4459692D1*
Y4447619D1*
X3516459Y4429369D1*
X3528673Y4417296D1*
X3540746Y4411119D1*
X3558996D1*
X3571209Y4417296D1*
X3583282Y4429369D1*
X3622498Y4496192D2*
Y4411119D1*
Y4471905D2*
X3640748Y4490155D1*
X3652961Y4496192D1*
X3671071D1*
X3683285Y4490155D1*
X3689321Y4471905D1*
Y4411119D1*
X3746787Y4538728D2*
Y4435405D1*
X3752823Y4417296D1*
X3765037Y4411119D1*
X3777110D1*
X3728537Y4496192D2*
X3771073D1*
X3816326D2*
Y4411119D1*
Y4459692D2*
X3822502Y4477942D1*
X3834576Y4490155D1*
X3846789Y4496192D1*
X3865039D1*
X3904255Y4459692D2*
X3977114D1*
Y4471905D1*
X3971078Y4484119D1*
X3965041Y4490155D1*
X3952828Y4496192D1*
X3934578D1*
X3922505Y4490155D1*
X3910291Y4477942D1*
X3904255Y4459692D1*
Y4447619D1*
X3910291Y4429369D1*
X3922505Y4417296D1*
X3934578Y4411119D1*
X3952828D1*
X3965041Y4417296D1*
X3977114Y4429369D1*
X4083153Y4477942D2*
X4077117Y4490155D1*
X4058867Y4496192D1*
X4040617D1*
X4022367Y4490155D1*
X4016330Y4477942D1*
X4022367Y4465869D1*
X4034580Y4459692D1*
X4064903Y4453655D1*
X4077117Y4447619D1*
X4083153Y4435405D1*
Y4429369D1*
X4077117Y4417296D1*
X4058867Y4411119D1*
X4040617D1*
X4022367Y4417296D1*
X4016330Y4429369D1*
X2163476Y-4283954D2*
D62*
X2155024Y-4267052D1*
X2137926Y-4249953D1*
X2121023Y-4241502D1*
X2087022D1*
X2069923Y-4249953D1*
X2053021Y-4267052D1*
X2044373Y-4283954D1*
X2035922Y-4309504D1*
Y-4352153D1*
X2044373Y-4377506D1*
X2053021Y-4394605D1*
X2069923Y-4411508D1*
X2087022Y-4420155D1*
X2121023D1*
X2137926Y-4411508D1*
X2155024Y-4394605D1*
X2163476Y-4377506D1*
X2218378Y-4241502D2*
Y-4420155D1*
X2337480Y-4241502D2*
Y-4420155D1*
X2218378Y-4326603D2*
X2337480D1*
X2528583Y-4420155D2*
X2460384Y-4241502D1*
X2392382Y-4420155D1*
X2417932Y-4360604D2*
X2503033D1*
X2702587Y-4267052D2*
X2685685Y-4249953D1*
X2660135Y-4241502D1*
X2626134D1*
X2600584Y-4249953D1*
X2583485Y-4267052D1*
Y-4283954D1*
X2592133Y-4301053D1*
X2600584Y-4309504D1*
X2617486Y-4317955D1*
X2668586Y-4335054D1*
X2685685Y-4343505D1*
X2694136Y-4352153D1*
X2702587Y-4369055D1*
Y-4394605D1*
X2685685Y-4411508D1*
X2660135Y-4420155D1*
X2626134D1*
X2600584Y-4411508D1*
X2583485Y-4394605D1*
X2876592Y-4267052D2*
X2859689Y-4249953D1*
X2834139Y-4241502D1*
X2800138D1*
X2774588Y-4249953D1*
X2757489Y-4267052D1*
Y-4283954D1*
X2766137Y-4301053D1*
X2774588Y-4309504D1*
X2791490Y-4317955D1*
X2842590Y-4335054D1*
X2859689Y-4343505D1*
X2868140Y-4352153D1*
X2876592Y-4369055D1*
Y-4394605D1*
X2859689Y-4411508D1*
X2834139Y-4420155D1*
X2800138D1*
X2774588Y-4411508D1*
X2757489Y-4394605D1*
X2931493Y-4241502D2*
Y-4420155D1*
X3105498Y-4267052D2*
X3088595Y-4249953D1*
X3063045Y-4241502D1*
X3029044D1*
X3003494Y-4249953D1*
X2986395Y-4267052D1*
Y-4283954D1*
X2995043Y-4301053D1*
X3003494Y-4309504D1*
X3020397Y-4317955D1*
X3071497Y-4335054D1*
X3088595Y-4343505D1*
X3097047Y-4352153D1*
X3105498Y-4369055D1*
Y-4394605D1*
X3088595Y-4411508D1*
X3063045Y-4420155D1*
X3029044D1*
X3003494Y-4411508D1*
X2986395Y-4394605D1*
X-4708990Y-1106867D2*
D63*
Y-1311042D1*
X-4592415D1*
X-4572873Y-1678367D2*
Y-1882542D1*
X-4708990Y-1678367D1*
Y-1882542D1*
X3516375Y-448946D2*
Y-623921D1*
X3429000Y-536546D2*
X3603975D1*
X3666720Y-434233D2*
X3744437Y-638409D1*
X3822154Y-434233D1*
X3991816Y-531492D2*
X3982157Y-511950D1*
X3952957Y-502292D1*
X3923757D1*
X3894557Y-511950D1*
X3884899Y-531492D1*
X3894557Y-550809D1*
X3914099Y-560692D1*
X3962616Y-570350D1*
X3982157Y-580009D1*
X3991816Y-599550D1*
Y-609209D1*
X3982157Y-628526D1*
X3952957Y-638409D1*
X3923757D1*
X3894557Y-628526D1*
X3884899Y-609209D1*
X4161478Y-531492D2*
X4151820Y-511950D1*
X4122620Y-502292D1*
X4093420D1*
X4064220Y-511950D1*
X4054561Y-531492D1*
X4064220Y-550809D1*
X4083761Y-560692D1*
X4132278Y-570350D1*
X4151820Y-580009D1*
X4161478Y-599550D1*
Y-609209D1*
X4151820Y-628526D1*
X4122620Y-638409D1*
X4093420D1*
X4064220Y-628526D1*
X4054561Y-609209D1*
X3574775Y-990750D2*
X3565117Y-971433D1*
X3545575Y-951892D1*
X3526258Y-942233D1*
X3487400D1*
X3467858Y-951892D1*
X3448541Y-971433D1*
X3438658Y-990750D1*
X3429000Y-1019950D1*
Y-1068692D1*
X3438658Y-1097667D1*
X3448541Y-1117209D1*
X3467858Y-1136526D1*
X3487400Y-1146409D1*
X3526258D1*
X3545575Y-1136526D1*
X3565117Y-1117209D1*
X3574775Y-1097667D1*
Y-1068692D1*
X3526258D1*
X3637520Y-1010292D2*
Y-1146409D1*
Y-1049150D2*
X3666720Y-1019950D1*
X3686262Y-1010292D1*
X3715237D1*
X3734779Y-1019950D1*
X3744437Y-1049150D1*
Y-1146409D1*
X3923757Y-942233D2*
Y-1146409D1*
Y-1039492D2*
X3904441Y-1019950D1*
X3884899Y-1010292D1*
X3855699D1*
X3836382Y-1019950D1*
X3816841Y-1039492D1*
X3807182Y-1068692D1*
Y-1088009D1*
X3816841Y-1117209D1*
X3836382Y-1136526D1*
X3855699Y-1146409D1*
X3884899D1*
X3904441Y-1136526D1*
X3923757Y-1117209D1*
X3362408Y1012591D2*
X3284467Y1216767D1*
X3206750Y1012591D1*
X3235950Y1080650D2*
X3333208D1*
X3425153Y1148708D2*
Y1012591D1*
Y1109850D2*
X3454353Y1139050D1*
X3473895Y1148708D1*
X3502870D1*
X3522412Y1139050D1*
X3532070Y1109850D1*
Y1012591D1*
X3711391Y1148708D2*
Y1012591D1*
Y1119508D2*
X3692074Y1139050D1*
X3672532Y1148708D1*
X3643557D1*
X3624015Y1139050D1*
X3604698Y1119508D1*
X3594815Y1090308D1*
Y1070991D1*
X3604698Y1041791D1*
X3624015Y1022474D1*
X3643557Y1012591D1*
X3672532D1*
X3692074Y1022474D1*
X3711391Y1041791D1*
X3774136Y1216767D2*
Y1012591D1*
X3885398Y1148708D2*
X3866081Y1139050D1*
X3846539Y1119508D1*
X3836881Y1090308D1*
Y1070991D1*
X3846539Y1041791D1*
X3866081Y1022474D1*
X3885398Y1012591D1*
X3914598D1*
X3934139Y1022474D1*
X3953456Y1041791D1*
X3963339Y1070991D1*
Y1090308D1*
X3953456Y1119508D1*
X3934139Y1139050D1*
X3914598Y1148708D1*
X3885398D1*
X4142660Y1139050D2*
Y983391D1*
X4133001Y954416D1*
X4123343Y944533D1*
X4103801Y934874D1*
X4074601D1*
X4055284Y944533D1*
X4142660Y1109850D2*
X4123343Y1129167D1*
X4103801Y1139050D1*
X4074601D1*
X4055284Y1129167D1*
X4035743Y1109850D1*
X4026084Y1080650D1*
Y1061108D1*
X4035743Y1032133D1*
X4055284Y1012591D1*
X4074601Y1002933D1*
X4103801D1*
X4123343Y1012591D1*
X4142660Y1032133D1*
X4461319Y1216767D2*
X4441778Y1207108D1*
X4422461Y1187567D1*
X4412578Y1168250D1*
X4402919Y1139050D1*
Y1090308D1*
X4412578Y1061333D1*
X4422461Y1041791D1*
X4441778Y1022474D1*
X4461319Y1012591D1*
X4500178D1*
X4519495Y1022474D1*
X4539036Y1041791D1*
X4548695Y1061333D1*
X4558353Y1090308D1*
Y1139050D1*
X4548695Y1168250D1*
X4539036Y1187567D1*
X4519495Y1207108D1*
X4500178Y1216767D1*
X4461319D1*
X4621098Y1148708D2*
Y1051450D1*
X4630757Y1022474D1*
X4650298Y1012591D1*
X4679498D1*
X4698815Y1022474D1*
X4728015Y1051450D1*
Y1148708D2*
Y1012591D1*
X4819960Y1216767D2*
Y1051450D1*
X4829619Y1022474D1*
X4849160Y1012591D1*
X4868477D1*
X4790760Y1148708D2*
X4858819D1*
X-2273786Y-4478412D2*
D59*
X-2207103D1*
X-2243463Y-4526985D1*
X-2225213D1*
X-2213140Y-4533022D1*
X-2207103Y-4539058D1*
X-2200926Y-4557308D1*
Y-4569381D1*
X-2207103Y-4587631D1*
X-2219176Y-4599845D1*
X-2237426Y-4605881D1*
X-2255676D1*
X-2273786Y-4599845D1*
X-2279822Y-4593668D1*
X-2285999Y-4581595D1*
X-2125211Y-4478412D2*
X-2143461Y-4484449D1*
X-2155674Y-4502699D1*
X-2161711Y-4533022D1*
Y-4551272D1*
X-2155674Y-4581595D1*
X-2143461Y-4599845D1*
X-2125211Y-4605881D1*
X-2113138D1*
X-2094888Y-4599845D1*
X-2082814Y-4581595D1*
X-2076638Y-4551272D1*
Y-4533022D1*
X-2082814Y-4502699D1*
X-2094888Y-4484449D1*
X-2113138Y-4478412D1*
X-2125211D1*
X-2082814Y-4502699D2*
X-2155674Y-4581595D1*
X-2037422Y-4520808D2*
Y-4605881D1*
Y-4545095D2*
X-2019172Y-4526845D1*
X-2006958Y-4520808D1*
X-1988849D1*
X-1976635Y-4526845D1*
X-1970599Y-4545095D1*
Y-4605881D1*
Y-4545095D2*
X-1952349Y-4526845D1*
X-1940135Y-4520808D1*
X-1922026D1*
X-1909812Y-4526845D1*
X-1903635Y-4545095D1*
Y-4605881D1*
X-1864420Y-4520808D2*
Y-4605881D1*
Y-4545095D2*
X-1846170Y-4526845D1*
X-1833956Y-4520808D1*
X-1815847D1*
X-1803633Y-4526845D1*
X-1797597Y-4545095D1*
Y-4605881D1*
Y-4545095D2*
X-1779347Y-4526845D1*
X-1767133Y-4520808D1*
X-1749024D1*
X-1736810Y-4526845D1*
X-1730633Y-4545095D1*
Y-4605881D1*
X-1495111Y-4520808D2*
Y-4605881D1*
Y-4539058D2*
X-1507184Y-4526845D1*
X-1519398Y-4520808D1*
X-1537508D1*
X-1549721Y-4526845D1*
X-1561794Y-4539058D1*
X-1567971Y-4557308D1*
Y-4569381D1*
X-1561794Y-4587631D1*
X-1549721Y-4599704D1*
X-1537508Y-4605881D1*
X-1519398D1*
X-1507184Y-4599704D1*
X-1495111Y-4587631D1*
X-1389073Y-4539058D2*
X-1395109Y-4526845D1*
X-1413359Y-4520808D1*
X-1431609D1*
X-1449859Y-4526845D1*
X-1455896Y-4539058D1*
X-1449859Y-4551131D1*
X-1437646Y-4557308D1*
X-1407323Y-4563345D1*
X-1395109Y-4569381D1*
X-1389073Y-4581595D1*
Y-4587631D1*
X-1395109Y-4599704D1*
X-1413359Y-4605881D1*
X-1431609D1*
X-1449859Y-4599704D1*
X-1455896Y-4587631D1*
X-1153551Y-4520808D2*
Y-4605881D1*
Y-4539058D2*
X-1165624Y-4526845D1*
X-1177837Y-4520808D1*
X-1195947D1*
X-1208160Y-4526845D1*
X-1220234Y-4539058D1*
X-1226410Y-4557308D1*
Y-4569381D1*
X-1220234Y-4587631D1*
X-1208160Y-4599704D1*
X-1195947Y-4605881D1*
X-1177837D1*
X-1165624Y-4599704D1*
X-1153551Y-4587631D1*
X-1047512Y-4539058D2*
X-1053549Y-4526845D1*
X-1071799Y-4520808D1*
X-1090049D1*
X-1108299Y-4526845D1*
X-1114335Y-4539058D1*
X-1108299Y-4551131D1*
X-1096085Y-4557308D1*
X-1065762Y-4563345D1*
X-1053549Y-4569381D1*
X-1047512Y-4581595D1*
Y-4587631D1*
X-1053549Y-4599704D1*
X-1071799Y-4605881D1*
X-1090049D1*
X-1108299Y-4599704D1*
X-1114335Y-4587631D1*
X-941473Y-4539058D2*
X-947510Y-4526845D1*
X-965760Y-4520808D1*
X-984010D1*
X-1002260Y-4526845D1*
X-1008296Y-4539058D1*
X-1002260Y-4551131D1*
X-990046Y-4557308D1*
X-959723Y-4563345D1*
X-947510Y-4569381D1*
X-941473Y-4581595D1*
Y-4587631D1*
X-947510Y-4599704D1*
X-965760Y-4605881D1*
X-984010D1*
X-1002260Y-4599704D1*
X-1008296Y-4587631D1*
X-902258Y-4557308D2*
X-829398D1*
Y-4545095D1*
X-835435Y-4532881D1*
X-841471Y-4526845D1*
X-853685Y-4520808D1*
X-871935D1*
X-884008Y-4526845D1*
X-896221Y-4539058D1*
X-902258Y-4557308D1*
Y-4569381D1*
X-896221Y-4587631D1*
X-884008Y-4599704D1*
X-871935Y-4605881D1*
X-853685D1*
X-841471Y-4599704D1*
X-829398Y-4587631D1*
X-790182Y-4520808D2*
Y-4605881D1*
Y-4545095D2*
X-771932Y-4526845D1*
X-759719Y-4520808D1*
X-741609D1*
X-729396Y-4526845D1*
X-723359Y-4545095D1*
Y-4605881D1*
Y-4545095D2*
X-705109Y-4526845D1*
X-692896Y-4520808D1*
X-674786D1*
X-662573Y-4526845D1*
X-656396Y-4545095D1*
Y-4605881D1*
X-617180Y-4478272D2*
Y-4605881D1*
Y-4539058D2*
X-604967Y-4526845D1*
X-592894Y-4520808D1*
X-574644D1*
X-562570Y-4526845D1*
X-550357Y-4539058D1*
X-544320Y-4557308D1*
Y-4569381D1*
X-550357Y-4587631D1*
X-562570Y-4599704D1*
X-574644Y-4605881D1*
X-592894D1*
X-604967Y-4599704D1*
X-617180Y-4587631D1*
X-505105Y-4478272D2*
Y-4605881D1*
X-465889Y-4557308D2*
X-393030D1*
Y-4545095D1*
X-399066Y-4532881D1*
X-405103Y-4526845D1*
X-417316Y-4520808D1*
X-435566D1*
X-447639Y-4526845D1*
X-459853Y-4539058D1*
X-465889Y-4557308D1*
Y-4569381D1*
X-459853Y-4587631D1*
X-447639Y-4599704D1*
X-435566Y-4605881D1*
X-417316D1*
X-405103Y-4599704D1*
X-393030Y-4587631D1*
X-280954Y-4478272D2*
Y-4605881D1*
Y-4539058D2*
X-293027Y-4526845D1*
X-305241Y-4520808D1*
X-323491D1*
X-335564Y-4526845D1*
X-347777Y-4539058D1*
X-353814Y-4557308D1*
Y-4569381D1*
X-347777Y-4587631D1*
X-335564Y-4599704D1*
X-323491Y-4605881D1*
X-305241D1*
X-293027Y-4599704D1*
X-280954Y-4587631D1*
X-3428999Y-4478272D2*
Y-4605881D1*
X-3343926Y-4478272D2*
Y-4605881D1*
X-3428999Y-4539058D2*
X-3343926D1*
X-3304711Y-4557308D2*
X-3231851D1*
Y-4545095D1*
X-3237888Y-4532881D1*
X-3243924Y-4526845D1*
X-3256138Y-4520808D1*
X-3274388D1*
X-3286461Y-4526845D1*
X-3298674Y-4539058D1*
X-3304711Y-4557308D1*
Y-4569381D1*
X-3298674Y-4587631D1*
X-3286461Y-4599704D1*
X-3274388Y-4605881D1*
X-3256138D1*
X-3243924Y-4599704D1*
X-3231851Y-4587631D1*
X-3119776Y-4520808D2*
Y-4605881D1*
Y-4539058D2*
X-3131849Y-4526845D1*
X-3144062Y-4520808D1*
X-3162172D1*
X-3174385Y-4526845D1*
X-3186458Y-4539058D1*
X-3192635Y-4557308D1*
Y-4569381D1*
X-3186458Y-4587631D1*
X-3174385Y-4599704D1*
X-3162172Y-4605881D1*
X-3144062D1*
X-3131849Y-4599704D1*
X-3119776Y-4587631D1*
X-3007700Y-4478272D2*
Y-4605881D1*
Y-4539058D2*
X-3019774Y-4526845D1*
X-3031987Y-4520808D1*
X-3050237D1*
X-3062310Y-4526845D1*
X-3074524Y-4539058D1*
X-3080560Y-4557308D1*
Y-4569381D1*
X-3074524Y-4587631D1*
X-3062310Y-4599704D1*
X-3050237Y-4605881D1*
X-3031987D1*
X-3019774Y-4599704D1*
X-3007700Y-4587631D1*
X-2968485Y-4520808D2*
Y-4605881D1*
Y-4557308D2*
X-2962308Y-4539058D1*
X-2950235Y-4526845D1*
X-2938021Y-4520808D1*
X-2919771D1*
X-2850233D2*
X-2862306Y-4526845D1*
X-2874519Y-4539058D1*
X-2880556Y-4557308D1*
Y-4569381D1*
X-2874519Y-4587631D1*
X-2862306Y-4599704D1*
X-2850233Y-4605881D1*
X-2831983D1*
X-2819769Y-4599704D1*
X-2807696Y-4587631D1*
X-2801519Y-4569381D1*
Y-4557308D1*
X-2807696Y-4539058D1*
X-2819769Y-4526845D1*
X-2831983Y-4520808D1*
X-2850233D1*
X-2731980D2*
X-2744053Y-4526845D1*
X-2756267Y-4539058D1*
X-2762303Y-4557308D1*
Y-4569381D1*
X-2756267Y-4587631D1*
X-2744053Y-4599704D1*
X-2731980Y-4605881D1*
X-2713730D1*
X-2701517Y-4599704D1*
X-2689444Y-4587631D1*
X-2683267Y-4569381D1*
Y-4557308D1*
X-2689444Y-4539058D1*
X-2701517Y-4526845D1*
X-2713730Y-4520808D1*
X-2731980D1*
X-2644051D2*
Y-4605881D1*
Y-4545095D2*
X-2625801Y-4526845D1*
X-2613588Y-4520808D1*
X-2595478D1*
X-2583265Y-4526845D1*
X-2577228Y-4545095D1*
Y-4605881D1*
Y-4545095D2*
X-2558978Y-4526845D1*
X-2546765Y-4520808D1*
X-2528655D1*
X-2516442Y-4526845D1*
X-2510265Y-4545095D1*
Y-4605881D1*
X-2464872Y-4520808D2*
X-2471049Y-4526985D1*
X-2464872Y-4533022D1*
X-2458835Y-4526985D1*
X-2464872Y-4520808D1*
Y-4593668D2*
X-2471049Y-4599845D1*
X-2464872Y-4605881D1*
X-2458835Y-4599845D1*
X-2464872Y-4593668D1*
X-4648903Y1065718D2*
D63*
Y939260D1*
X-4444728D1*
X-4551645D2*
Y1016977D1*
X-4580845Y1128463D2*
X-4483586D1*
X-4454611Y1138122D1*
X-4444728Y1157663D1*
Y1186863D1*
X-4454611Y1206180D1*
X-4483586Y1235380D1*
X-4580845D2*
X-4444728D1*
X-4551645Y1405042D2*
X-4571186Y1395384D1*
X-4580845Y1366184D1*
Y1336984D1*
X-4571186Y1307784D1*
X-4551645Y1298125D1*
X-4532328Y1307784D1*
X-4522445Y1327325D1*
X-4512786Y1375842D1*
X-4503128Y1395384D1*
X-4483586Y1405042D1*
X-4473928D1*
X-4454611Y1395384D1*
X-4444728Y1366184D1*
Y1336984D1*
X-4454611Y1307784D1*
X-4473928Y1298125D1*
X-4522445Y1467787D2*
Y1584363D1*
X-4541986D1*
X-4561528Y1574704D1*
X-4571186Y1565046D1*
X-4580845Y1545504D1*
Y1516304D1*
X-4571186Y1496987D1*
X-4551645Y1477446D1*
X-4522445Y1467787D1*
X-4503128D1*
X-4473928Y1477446D1*
X-4454611Y1496987D1*
X-4444728Y1516304D1*
Y1545504D1*
X-4454611Y1565046D1*
X-4473928Y1584363D1*
X-2807213Y4586369D2*
D59*
X-2855926Y4713978D1*
X-2904499Y4586369D1*
X-2886249Y4628905D2*
X-2825463D1*
X-2701174Y4653192D2*
X-2707211Y4665405D1*
X-2725461Y4671442D1*
X-2743711D1*
X-2761961Y4665405D1*
X-2767997Y4653192D1*
X-2761961Y4641119D1*
X-2749747Y4634942D1*
X-2719424Y4628905D1*
X-2707211Y4622869D1*
X-2701174Y4610655D1*
Y4604619D1*
X-2707211Y4592546D1*
X-2725461Y4586369D1*
X-2743711D1*
X-2761961Y4592546D1*
X-2767997Y4604619D1*
X-2595135Y4653192D2*
X-2601172Y4665405D1*
X-2619422Y4671442D1*
X-2637672D1*
X-2655922Y4665405D1*
X-2661958Y4653192D1*
X-2655922Y4641119D1*
X-2643708Y4634942D1*
X-2613385Y4628905D1*
X-2601172Y4622869D1*
X-2595135Y4610655D1*
Y4604619D1*
X-2601172Y4592546D1*
X-2619422Y4586369D1*
X-2637672D1*
X-2655922Y4592546D1*
X-2661958Y4604619D1*
X-2549743Y4671442D2*
X-2513383Y4586369D1*
X-2525456Y4562082D1*
X-2537670Y4549869D1*
X-2549743Y4543832D1*
X-2555920D1*
X-2476883Y4671442D2*
X-2513383Y4586369D1*
X-2314221Y4713978D2*
Y4586369D1*
X-2241361D1*
X-2202146Y4634942D2*
X-2129286D1*
Y4647155D1*
X-2135323Y4659369D1*
X-2141359Y4665405D1*
X-2153573Y4671442D1*
X-2171823D1*
X-2183896Y4665405D1*
X-2196109Y4653192D1*
X-2202146Y4634942D1*
Y4622869D1*
X-2196109Y4604619D1*
X-2183896Y4592546D1*
X-2171823Y4586369D1*
X-2153573D1*
X-2141359Y4592546D1*
X-2129286Y4604619D1*
X-2090070Y4671442D2*
X-2053570Y4586369D1*
X-2017211Y4671442D1*
X-1977995Y4634942D2*
X-1905135D1*
Y4647155D1*
X-1911172Y4659369D1*
X-1917209Y4665405D1*
X-1929422Y4671442D1*
X-1947672D1*
X-1959745Y4665405D1*
X-1971959Y4653192D1*
X-1977995Y4634942D1*
Y4622869D1*
X-1971959Y4604619D1*
X-1959745Y4592546D1*
X-1947672Y4586369D1*
X-1929422D1*
X-1917209Y4592546D1*
X-1905135Y4604619D1*
X-1865920Y4713978D2*
Y4586369D1*
X-1820527Y4671442D2*
X-1826704Y4665265D1*
X-1820527Y4659228D1*
X-1814491Y4665265D1*
X-1820527Y4671442D1*
Y4598582D2*
X-1826704Y4592405D1*
X-1820527Y4586369D1*
X-1814491Y4592405D1*
X-1820527Y4598582D1*
X809318Y244026D2*
D64*
X804377Y253797D1*
X789889Y268397D1*
X891864D1*
X789777Y367828D2*
X891864D1*
X789777Y299770D1*
X891864D1*
Y447830D2*
X789889D1*
X857835Y399201D1*
Y472088D1*
X809318Y503461D2*
X804377Y513232D1*
X789889Y527832D1*
X891864D1*
Y607834D2*
X789889D1*
X857835Y559204D1*
Y632092D1*
X789889Y687723D2*
X794718Y673235D1*
X804377Y668294D1*
X814147D1*
X823806Y673235D1*
X828747Y682894D1*
X833577Y702323D1*
X838406Y716923D1*
X848177Y726582D1*
X857835Y731411D1*
X872435D1*
X882094Y726582D1*
X887035Y721752D1*
X891864Y707152D1*
Y687723D1*
X887035Y673235D1*
X882094Y668294D1*
X872435Y663465D1*
X857835D1*
X848177Y668294D1*
X838406Y678065D1*
X833577Y692552D1*
X828747Y711982D1*
X823806Y721752D1*
X814147Y726582D1*
X804377D1*
X794718Y721752D1*
X789889Y707152D1*
Y687723D1*
X1666568Y275776D2*
X1661627Y285547D1*
X1647139Y300147D1*
X1749114D1*
X1647027Y399578D2*
X1749114D1*
X1647027Y331520D1*
X1749114D1*
Y479580D2*
X1647139D1*
X1715085Y430951D1*
Y503838D1*
X1666568Y535211D2*
X1661627Y544982D1*
X1647139Y559582D1*
X1749114D1*
Y639584D2*
X1647139D1*
X1715085Y590954D1*
Y663842D1*
X1647139Y719473D2*
X1651968Y704985D1*
X1661627Y700044D1*
X1671397D1*
X1681056Y704985D1*
X1685997Y714644D1*
X1690827Y734073D1*
X1695656Y748673D1*
X1705427Y758332D1*
X1715085Y763161D1*
X1729685D1*
X1739344Y758332D1*
X1744285Y753502D1*
X1749114Y738902D1*
Y719473D1*
X1744285Y704985D1*
X1739344Y700044D1*
X1729685Y695215D1*
X1715085D1*
X1705427Y700044D1*
X1695656Y709815D1*
X1690827Y724302D1*
X1685997Y743732D1*
X1681056Y753502D1*
X1671397Y758332D1*
X1661627D1*
X1651968Y753502D1*
X1647139Y738902D1*
Y719473D1*
X4322558Y339783D2*
X4312900Y349554D1*
X4298300Y354383D1*
X4278871D1*
X4264271Y349554D1*
X4254500Y339783D1*
Y330125D1*
X4259441Y320354D1*
X4264271Y315525D1*
X4273929Y310696D1*
X4303129Y300925D1*
X4312900Y296096D1*
X4317729Y291154D1*
X4322558Y281496D1*
Y266896D1*
X4312900Y257237D1*
X4298300Y252296D1*
X4278871D1*
X4264271Y257237D1*
X4254500Y266896D1*
X4412331Y305754D2*
X4402560Y315525D1*
X4392789Y320354D1*
X4378302D1*
X4368531Y315525D1*
X4358872Y305754D1*
X4353931Y291154D1*
Y281496D1*
X4358872Y266896D1*
X4368531Y257237D1*
X4378302Y252296D1*
X4392789D1*
X4402560Y257237D1*
X4412331Y266896D1*
X4443703Y320354D2*
Y252296D1*
Y291154D2*
X4448645Y305754D1*
X4458303Y315525D1*
X4468074Y320354D1*
X4482674D1*
X2254250Y1590354D2*
Y1541725D1*
X2259079Y1527237D1*
X2268850Y1522296D1*
X2283450D1*
X2293108Y1527237D1*
X2307708Y1541725D1*
Y1590354D2*
Y1522296D1*
X2416910D2*
X2377939Y1624383D1*
X2339081Y1522296D1*
X2353681Y1556325D2*
X2402310D1*
X2467712Y1522296D2*
X2516341Y1624271D1*
X2448283D1*
X2596343Y1522296D2*
Y1624271D1*
X2547714Y1556325D1*
X2620601D1*
X2651974Y1604842D2*
X2661745Y1609783D1*
X2676345Y1624271D1*
Y1522296D1*
X2127250Y1414342D2*
X2137021Y1419283D1*
X2151621Y1433771D1*
Y1331796D1*
X2182993Y1433883D2*
Y1331796D1*
X2231622Y1399854D2*
X2182993Y1351225D1*
X2202422Y1370654D2*
X2236452Y1331796D1*
X2297024Y1433771D2*
X2282424Y1428942D1*
X2272653Y1414342D1*
X2267824Y1390083D1*
Y1375483D1*
X2272653Y1351225D1*
X2282424Y1336625D1*
X2297024Y1331796D1*
X2306683D1*
X2321283Y1336625D1*
X2330941Y1351225D1*
X2335883Y1375483D1*
Y1390083D1*
X2330941Y1414342D1*
X2321283Y1428942D1*
X2306683Y1433771D1*
X2297024D1*
X2330941Y1414342D2*
X2272653Y1351225D1*
X2470842Y1341566D2*
X2466012Y1336625D1*
X2470842Y1331796D1*
X2475783Y1336625D1*
X2470842Y1341566D1*
X2507156Y1414342D2*
X2516926Y1419283D1*
X2531526Y1433771D1*
Y1331796D1*
X2567840Y1409513D2*
Y1414342D1*
X2572670Y1424113D1*
X2577499Y1428942D1*
X2587270Y1433771D1*
X2606699D1*
X2616357Y1428942D1*
X2621187Y1424113D1*
X2626128Y1414342D1*
Y1404683D1*
X2621187Y1394913D1*
X2611528Y1380425D1*
X2562899Y1331796D1*
X2630957D1*
X2720618Y1433771D2*
X2672101D1*
X2667271Y1390083D1*
X2672101Y1394913D1*
X2686701Y1399854D1*
X2701188D1*
X2715788Y1394913D1*
X2725559Y1385254D1*
X2730388Y1370654D1*
Y1360996D1*
X2725559Y1346396D1*
X2715788Y1336625D1*
X2701188Y1331796D1*
X2686701D1*
X2672101Y1336625D1*
X2667271Y1341566D1*
X2662330Y1351225D1*
X2761761Y1433883D2*
X2786132Y1331796D1*
X2810390Y1433883D1*
X2834649Y1331796D1*
X2859019Y1433883D1*
X-2667000Y-1931617D2*
Y-2033704D1*
X-2598942Y-1931617D2*
Y-2033704D1*
X-2667000Y-1980246D2*
X-2598942D1*
X-2567569Y-1994846D2*
X-2509281D1*
Y-1985075D1*
X-2514111Y-1975304D1*
X-2518940Y-1970475D1*
X-2528711Y-1965646D1*
X-2543311D1*
X-2552969Y-1970475D1*
X-2562740Y-1980246D1*
X-2567569Y-1994846D1*
Y-2004504D1*
X-2562740Y-2019104D1*
X-2552969Y-2028763D1*
X-2543311Y-2033704D1*
X-2528711D1*
X-2518940Y-2028763D1*
X-2509281Y-2019104D1*
X-2419621Y-1965646D2*
Y-2033704D1*
Y-1980246D2*
X-2429280Y-1970475D1*
X-2439050Y-1965646D1*
X-2453538D1*
X-2463309Y-1970475D1*
X-2472967Y-1980246D1*
X-2477909Y-1994846D1*
Y-2004504D1*
X-2472967Y-2019104D1*
X-2463309Y-2028763D1*
X-2453538Y-2033704D1*
X-2439050D1*
X-2429280Y-2028763D1*
X-2419621Y-2019104D1*
X-2329961Y-1931617D2*
Y-2033704D1*
Y-1980246D2*
X-2339619Y-1970475D1*
X-2349390Y-1965646D1*
X-2363990D1*
X-2373649Y-1970475D1*
X-2383419Y-1980246D1*
X-2388249Y-1994846D1*
Y-2004504D1*
X-2383419Y-2019104D1*
X-2373649Y-2028763D1*
X-2363990Y-2033704D1*
X-2349390D1*
X-2339619Y-2028763D1*
X-2329961Y-2019104D1*
X-2298588Y-1965646D2*
Y-2033704D1*
Y-1994846D2*
X-2293647Y-1980246D1*
X-2283988Y-1970475D1*
X-2274218Y-1965646D1*
X-2259618D1*
X-2203987D2*
X-2213645Y-1970475D1*
X-2223416Y-1980246D1*
X-2228245Y-1994846D1*
Y-2004504D1*
X-2223416Y-2019104D1*
X-2213645Y-2028763D1*
X-2203987Y-2033704D1*
X-2189387D1*
X-2179616Y-2028763D1*
X-2169957Y-2019104D1*
X-2165016Y-2004504D1*
Y-1994846D1*
X-2169957Y-1980246D1*
X-2179616Y-1970475D1*
X-2189387Y-1965646D1*
X-2203987D1*
X-2109385D2*
X-2119043Y-1970475D1*
X-2128814Y-1980246D1*
X-2133643Y-1994846D1*
Y-2004504D1*
X-2128814Y-2019104D1*
X-2119043Y-2028763D1*
X-2109385Y-2033704D1*
X-2094785D1*
X-2085014Y-2028763D1*
X-2075356Y-2019104D1*
X-2070414Y-2004504D1*
Y-1994846D1*
X-2075356Y-1980246D1*
X-2085014Y-1970475D1*
X-2094785Y-1965646D1*
X-2109385D1*
X-2039042D2*
Y-2033704D1*
Y-1985075D2*
X-2024442Y-1970475D1*
X-2014671Y-1965646D1*
X-2000183D1*
X-1990412Y-1970475D1*
X-1985583Y-1985075D1*
Y-2033704D1*
Y-1985075D2*
X-1970983Y-1970475D1*
X-1961212Y-1965646D1*
X-1946725D1*
X-1936954Y-1970475D1*
X-1932012Y-1985075D1*
Y-2033704D1*
X-1743483Y-1980246D2*
X-1753253Y-1970475D1*
X-1763024Y-1965646D1*
X-1777512D1*
X-1787283Y-1970475D1*
X-1796941Y-1980246D1*
X-1801883Y-1994846D1*
Y-2004504D1*
X-1796941Y-2019104D1*
X-1787283Y-2028763D1*
X-1777512Y-2033704D1*
X-1763024D1*
X-1753253Y-2028763D1*
X-1743483Y-2019104D1*
X-1712110Y-1931617D2*
Y-2033704D1*
X-1680738Y-1994846D2*
X-1622450D1*
Y-1985075D1*
X-1627279Y-1975304D1*
X-1632108Y-1970475D1*
X-1641879Y-1965646D1*
X-1656479D1*
X-1666138Y-1970475D1*
X-1675908Y-1980246D1*
X-1680738Y-1994846D1*
Y-2004504D1*
X-1675908Y-2019104D1*
X-1666138Y-2028763D1*
X-1656479Y-2033704D1*
X-1641879D1*
X-1632108Y-2028763D1*
X-1622450Y-2019104D1*
X-1532790Y-1965646D2*
Y-2033704D1*
Y-1980246D2*
X-1542448Y-1970475D1*
X-1552219Y-1965646D1*
X-1566707D1*
X-1576477Y-1970475D1*
X-1586136Y-1980246D1*
X-1591077Y-1994846D1*
Y-2004504D1*
X-1586136Y-2019104D1*
X-1576477Y-2028763D1*
X-1566707Y-2033704D1*
X-1552219D1*
X-1542448Y-2028763D1*
X-1532790Y-2019104D1*
X-1501417Y-1965646D2*
Y-2033704D1*
Y-1994846D2*
X-1496476Y-1980246D1*
X-1486817Y-1970475D1*
X-1477046Y-1965646D1*
X-1462446D1*
X-1372786D2*
Y-2033704D1*
Y-1980246D2*
X-1382445Y-1970475D1*
X-1392215Y-1965646D1*
X-1406703D1*
X-1416474Y-1970475D1*
X-1426132Y-1980246D1*
X-1431074Y-1994846D1*
Y-2004504D1*
X-1426132Y-2019104D1*
X-1416474Y-2028763D1*
X-1406703Y-2033704D1*
X-1392215D1*
X-1382445Y-2028763D1*
X-1372786Y-2019104D1*
X-1341413Y-1965646D2*
Y-2033704D1*
Y-1985075D2*
X-1326813Y-1970475D1*
X-1317043Y-1965646D1*
X-1302555D1*
X-1292784Y-1970475D1*
X-1287955Y-1985075D1*
Y-2033704D1*
X-1198182Y-1980246D2*
X-1207953Y-1970475D1*
X-1217724Y-1965646D1*
X-1232212D1*
X-1241982Y-1970475D1*
X-1251641Y-1980246D1*
X-1256582Y-1994846D1*
Y-2004504D1*
X-1251641Y-2019104D1*
X-1241982Y-2028763D1*
X-1232212Y-2033704D1*
X-1217724D1*
X-1207953Y-2028763D1*
X-1198182Y-2019104D1*
X-1166810Y-1994846D2*
X-1108522D1*
Y-1985075D1*
X-1113351Y-1975304D1*
X-1118181Y-1970475D1*
X-1127951Y-1965646D1*
X-1142551D1*
X-1152210Y-1970475D1*
X-1161981Y-1980246D1*
X-1166810Y-1994846D1*
Y-2004504D1*
X-1161981Y-2019104D1*
X-1152210Y-2028763D1*
X-1142551Y-2033704D1*
X-1127951D1*
X-1118181Y-2028763D1*
X-1108522Y-2019104D1*
X-968622Y-1931729D2*
X-915276D1*
X-944363Y-1970587D1*
X-929763D1*
X-920105Y-1975417D1*
X-915276Y-1980246D1*
X-910334Y-1994846D1*
Y-2004504D1*
X-915276Y-2019104D1*
X-924934Y-2028875D1*
X-939534Y-2033704D1*
X-954134D1*
X-968622Y-2028875D1*
X-973451Y-2023934D1*
X-978393Y-2014275D1*
X-849762Y-1931729D2*
X-864362Y-1936558D1*
X-874132Y-1951158D1*
X-878962Y-1975417D1*
Y-1990017D1*
X-874132Y-2014275D1*
X-864362Y-2028875D1*
X-849762Y-2033704D1*
X-840103D1*
X-825503Y-2028875D1*
X-815845Y-2014275D1*
X-810903Y-1990017D1*
Y-1975417D1*
X-815845Y-1951158D1*
X-825503Y-1936558D1*
X-840103Y-1931729D1*
X-849762D1*
X-815845Y-1951158D2*
X-874132Y-2014275D1*
X-779531Y-1965646D2*
Y-2033704D1*
Y-1985075D2*
X-764931Y-1970475D1*
X-755160Y-1965646D1*
X-740672D1*
X-730901Y-1970475D1*
X-726072Y-1985075D1*
Y-2033704D1*
Y-1985075D2*
X-711472Y-1970475D1*
X-701701Y-1965646D1*
X-687214D1*
X-677443Y-1970475D1*
X-672501Y-1985075D1*
Y-2033704D1*
X-641129Y-1965646D2*
Y-2033704D1*
Y-1985075D2*
X-626529Y-1970475D1*
X-616758Y-1965646D1*
X-602270D1*
X-592500Y-1970475D1*
X-587670Y-1985075D1*
Y-2033704D1*
Y-1985075D2*
X-573070Y-1970475D1*
X-563300Y-1965646D1*
X-548812D1*
X-539041Y-1970475D1*
X-534100Y-1985075D1*
Y-2033704D1*
X-2667000Y-2185617D2*
Y-2287704D1*
X-2598942Y-2185617D2*
Y-2287704D1*
X-2667000Y-2234246D2*
X-2598942D1*
X-2567569Y-2248846D2*
X-2509281D1*
Y-2239075D1*
X-2514111Y-2229304D1*
X-2518940Y-2224475D1*
X-2528711Y-2219646D1*
X-2543311D1*
X-2552969Y-2224475D1*
X-2562740Y-2234246D1*
X-2567569Y-2248846D1*
Y-2258504D1*
X-2562740Y-2273104D1*
X-2552969Y-2282763D1*
X-2543311Y-2287704D1*
X-2528711D1*
X-2518940Y-2282763D1*
X-2509281Y-2273104D1*
X-2419621Y-2219646D2*
Y-2287704D1*
Y-2234246D2*
X-2429280Y-2224475D1*
X-2439050Y-2219646D1*
X-2453538D1*
X-2463309Y-2224475D1*
X-2472967Y-2234246D1*
X-2477909Y-2248846D1*
Y-2258504D1*
X-2472967Y-2273104D1*
X-2463309Y-2282763D1*
X-2453538Y-2287704D1*
X-2439050D1*
X-2429280Y-2282763D1*
X-2419621Y-2273104D1*
X-2329961Y-2185617D2*
Y-2287704D1*
Y-2234246D2*
X-2339619Y-2224475D1*
X-2349390Y-2219646D1*
X-2363990D1*
X-2373649Y-2224475D1*
X-2383419Y-2234246D1*
X-2388249Y-2248846D1*
Y-2258504D1*
X-2383419Y-2273104D1*
X-2373649Y-2282763D1*
X-2363990Y-2287704D1*
X-2349390D1*
X-2339619Y-2282763D1*
X-2329961Y-2273104D1*
X-2298588Y-2219646D2*
Y-2287704D1*
Y-2248846D2*
X-2293647Y-2234246D1*
X-2283988Y-2224475D1*
X-2274218Y-2219646D1*
X-2259618D1*
X-2203987D2*
X-2213645Y-2224475D1*
X-2223416Y-2234246D1*
X-2228245Y-2248846D1*
Y-2258504D1*
X-2223416Y-2273104D1*
X-2213645Y-2282763D1*
X-2203987Y-2287704D1*
X-2189387D1*
X-2179616Y-2282763D1*
X-2169957Y-2273104D1*
X-2165016Y-2258504D1*
Y-2248846D1*
X-2169957Y-2234246D1*
X-2179616Y-2224475D1*
X-2189387Y-2219646D1*
X-2203987D1*
X-2109385D2*
X-2119043Y-2224475D1*
X-2128814Y-2234246D1*
X-2133643Y-2248846D1*
Y-2258504D1*
X-2128814Y-2273104D1*
X-2119043Y-2282763D1*
X-2109385Y-2287704D1*
X-2094785D1*
X-2085014Y-2282763D1*
X-2075356Y-2273104D1*
X-2070414Y-2258504D1*
Y-2248846D1*
X-2075356Y-2234246D1*
X-2085014Y-2224475D1*
X-2094785Y-2219646D1*
X-2109385D1*
X-2039042D2*
Y-2287704D1*
Y-2239075D2*
X-2024442Y-2224475D1*
X-2014671Y-2219646D1*
X-2000183D1*
X-1990412Y-2224475D1*
X-1985583Y-2239075D1*
Y-2287704D1*
Y-2239075D2*
X-1970983Y-2224475D1*
X-1961212Y-2219646D1*
X-1946725D1*
X-1936954Y-2224475D1*
X-1932012Y-2239075D1*
Y-2287704D1*
X-1728995Y-2209875D2*
X-1733824Y-2200217D1*
X-1743595Y-2190446D1*
X-1753253Y-2185617D1*
X-1772683D1*
X-1782453Y-2190446D1*
X-1792112Y-2200217D1*
X-1797053Y-2209875D1*
X-1801883Y-2224475D1*
Y-2248846D1*
X-1797053Y-2263334D1*
X-1792112Y-2273104D1*
X-1782453Y-2282763D1*
X-1772683Y-2287704D1*
X-1753253D1*
X-1743595Y-2282763D1*
X-1733824Y-2273104D1*
X-1728995Y-2263334D1*
X-1697622Y-2185617D2*
Y-2287704D1*
X-1666250Y-2248846D2*
X-1607962D1*
Y-2239075D1*
X-1612791Y-2229304D1*
X-1617621Y-2224475D1*
X-1627391Y-2219646D1*
X-1641991D1*
X-1651650Y-2224475D1*
X-1661421Y-2234246D1*
X-1666250Y-2248846D1*
Y-2258504D1*
X-1661421Y-2273104D1*
X-1651650Y-2282763D1*
X-1641991Y-2287704D1*
X-1627391D1*
X-1617621Y-2282763D1*
X-1607962Y-2273104D1*
X-1518302Y-2219646D2*
Y-2287704D1*
Y-2234246D2*
X-1527960Y-2224475D1*
X-1537731Y-2219646D1*
X-1552219D1*
X-1561990Y-2224475D1*
X-1571648Y-2234246D1*
X-1576590Y-2248846D1*
Y-2258504D1*
X-1571648Y-2273104D1*
X-1561990Y-2282763D1*
X-1552219Y-2287704D1*
X-1537731D1*
X-1527960Y-2282763D1*
X-1518302Y-2273104D1*
X-1486929Y-2219646D2*
Y-2287704D1*
Y-2248846D2*
X-1481988Y-2234246D1*
X-1472329Y-2224475D1*
X-1462559Y-2219646D1*
X-1447959D1*
X-1358298D2*
Y-2287704D1*
Y-2234246D2*
X-1367957Y-2224475D1*
X-1377728Y-2219646D1*
X-1392215D1*
X-1401986Y-2224475D1*
X-1411645Y-2234246D1*
X-1416586Y-2248846D1*
Y-2258504D1*
X-1411645Y-2273104D1*
X-1401986Y-2282763D1*
X-1392215Y-2287704D1*
X-1377728D1*
X-1367957Y-2282763D1*
X-1358298Y-2273104D1*
X-1326926Y-2219646D2*
Y-2287704D1*
Y-2239075D2*
X-1312326Y-2224475D1*
X-1302555Y-2219646D1*
X-1288067D1*
X-1278297Y-2224475D1*
X-1273467Y-2239075D1*
Y-2287704D1*
X-1183695Y-2234246D2*
X-1193466Y-2224475D1*
X-1203236Y-2219646D1*
X-1217724D1*
X-1227495Y-2224475D1*
X-1237153Y-2234246D1*
X-1242095Y-2248846D1*
Y-2258504D1*
X-1237153Y-2273104D1*
X-1227495Y-2282763D1*
X-1217724Y-2287704D1*
X-1203236D1*
X-1193466Y-2282763D1*
X-1183695Y-2273104D1*
X-1152322Y-2248846D2*
X-1094035D1*
Y-2239075D1*
X-1098864Y-2229304D1*
X-1103693Y-2224475D1*
X-1113464Y-2219646D1*
X-1128064D1*
X-1137722Y-2224475D1*
X-1147493Y-2234246D1*
X-1152322Y-2248846D1*
Y-2258504D1*
X-1147493Y-2273104D1*
X-1137722Y-2282763D1*
X-1128064Y-2287704D1*
X-1113464D1*
X-1103693Y-2282763D1*
X-1094035Y-2273104D1*
X-958963Y-2209987D2*
Y-2205158D1*
X-954134Y-2195387D1*
X-949305Y-2190558D1*
X-939534Y-2185729D1*
X-920105D1*
X-910446Y-2190558D1*
X-905617Y-2195387D1*
X-900676Y-2205158D1*
Y-2214817D1*
X-905617Y-2224587D1*
X-915276Y-2239075D1*
X-963905Y-2287704D1*
X-895846D1*
X-835274Y-2185729D2*
X-849874Y-2190558D1*
X-859645Y-2205158D1*
X-864474Y-2229417D1*
Y-2244017D1*
X-859645Y-2268275D1*
X-849874Y-2282875D1*
X-835274Y-2287704D1*
X-825615D1*
X-811015Y-2282875D1*
X-801357Y-2268275D1*
X-796415Y-2244017D1*
Y-2229417D1*
X-801357Y-2205158D1*
X-811015Y-2190558D1*
X-825615Y-2185729D1*
X-835274D1*
X-801357Y-2205158D2*
X-859645Y-2268275D1*
X-765043Y-2219646D2*
Y-2287704D1*
Y-2239075D2*
X-750443Y-2224475D1*
X-740672Y-2219646D1*
X-726184D1*
X-716414Y-2224475D1*
X-711584Y-2239075D1*
Y-2287704D1*
Y-2239075D2*
X-696984Y-2224475D1*
X-687214Y-2219646D1*
X-672726D1*
X-662955Y-2224475D1*
X-658014Y-2239075D1*
Y-2287704D1*
X-626641Y-2219646D2*
Y-2287704D1*
Y-2239075D2*
X-612041Y-2224475D1*
X-602270Y-2219646D1*
X-587783D1*
X-578012Y-2224475D1*
X-573183Y-2239075D1*
Y-2287704D1*
Y-2239075D2*
X-558583Y-2224475D1*
X-548812Y-2219646D1*
X-534324D1*
X-524553Y-2224475D1*
X-519612Y-2239075D1*
Y-2287704D1*
X-1680840Y1815987D2*
D59*
Y1688377D1*
X-1723376Y1815987D2*
X-1638303D1*
X-1599087Y1791560D2*
X-1586874Y1797737D1*
X-1568624Y1815846D1*
Y1688377D1*
X243331Y557624D2*
Y612234D1*
X237154Y630484D1*
X231117Y636660D1*
X219044Y642697D1*
X206831D1*
X194758Y636660D1*
X188581Y630484D1*
X182544Y612234D1*
Y557624D1*
X310154D1*
X243331Y600160D2*
X310154Y642697D1*
X206971Y681913D2*
X200794Y694126D1*
X182685Y712376D1*
X310154D1*
X397702Y442460D2*
X391525Y454674D1*
X373415Y472924D1*
X500885D1*
X373415Y548639D2*
X379452Y530389D1*
X397702Y518176D1*
X428025Y512139D1*
X446275D1*
X476598Y518176D1*
X494848Y530389D1*
X500885Y548639D1*
Y560712D1*
X494848Y578962D1*
X476598Y591035D1*
X446275Y597212D1*
X428025D1*
X397702Y591035D1*
X379452Y578962D1*
X373415Y560712D1*
Y548639D1*
X397702Y591035D2*
X476598Y518176D1*
X373415Y672928D2*
X379452Y654678D1*
X397702Y642465D1*
X428025Y636428D1*
X446275D1*
X476598Y642465D1*
X494848Y654678D1*
X500885Y672928D1*
Y685001D1*
X494848Y703251D1*
X476598Y715324D1*
X446275Y721501D1*
X428025D1*
X397702Y715324D1*
X379452Y703251D1*
X373415Y685001D1*
Y672928D1*
X397702Y715324D2*
X476598Y642465D1*
X373275Y760717D2*
X500885D1*
X415812Y821503D2*
X476598Y760717D1*
X452312Y785003D2*
X500885Y827540D1*
X243331Y-739681D2*
Y-685071D1*
X237154Y-666821D1*
X231117Y-660644D1*
X219044Y-654608D1*
X206831D1*
X194758Y-660644D1*
X188581Y-666821D1*
X182544Y-685071D1*
Y-739681D1*
X310154D1*
X243331Y-697144D2*
X310154Y-654608D1*
X213008Y-609215D2*
X206971D1*
X194758Y-603179D1*
X188721Y-597142D1*
X182685Y-584929D1*
Y-560642D1*
X188721Y-548569D1*
X194758Y-542533D1*
X206971Y-536356D1*
X219044D1*
X231258Y-542533D1*
X249367Y-554606D1*
X310154Y-615392D1*
Y-530319D1*
X397702Y-765395D2*
X391525Y-753182D1*
X373415Y-734932D1*
X500885D1*
X373415Y-659216D2*
X379452Y-677466D1*
X397702Y-689680D1*
X428025Y-695716D1*
X446275D1*
X476598Y-689680D1*
X494848Y-677466D1*
X500885Y-659216D1*
Y-647143D1*
X494848Y-628893D1*
X476598Y-616820D1*
X446275Y-610643D1*
X428025D1*
X397702Y-616820D1*
X379452Y-628893D1*
X373415Y-647143D1*
Y-659216D1*
X397702Y-616820D2*
X476598Y-689680D1*
X373275Y-571428D2*
X500885D1*
X415812Y-510641D2*
X476598Y-571428D1*
X452312Y-547141D2*
X500885Y-504605D1*
X974819Y-497331D2*
X1029429D1*
X1047679Y-491154D1*
X1053856Y-485117D1*
X1059892Y-473044D1*
Y-460831D1*
X1053856Y-448758D1*
X1047679Y-442581D1*
X1029429Y-436544D1*
X974819D1*
Y-564154D1*
X1017356Y-497331D2*
X1059892Y-564154D1*
X1111321Y-436685D2*
X1178004D1*
X1141644Y-485258D1*
X1159894D1*
X1171967Y-491294D1*
X1178004Y-497331D1*
X1184181Y-515581D1*
Y-527654D1*
X1178004Y-545904D1*
X1165931Y-558117D1*
X1147681Y-564154D1*
X1129431D1*
X1111321Y-558117D1*
X1105285Y-551940D1*
X1099108Y-539867D1*
X917424Y-754885D2*
Y-627415D1*
X856637Y-712348D1*
X947747D1*
X1011249Y-754885D2*
X1072035Y-627415D1*
X986962D1*
X1147751D2*
X1129501Y-633452D1*
X1117288Y-651702D1*
X1111251Y-682025D1*
Y-700275D1*
X1117288Y-730598D1*
X1129501Y-748848D1*
X1147751Y-754885D1*
X1159824D1*
X1178074Y-748848D1*
X1190147Y-730598D1*
X1196324Y-700275D1*
Y-682025D1*
X1190147Y-651702D1*
X1178074Y-633452D1*
X1159824Y-627415D1*
X1147751D1*
X1190147Y-651702D2*
X1117288Y-730598D1*
X1235540Y-627275D2*
Y-754885D1*
X1296326Y-669812D2*
X1235540Y-730598D1*
X1259826Y-706312D2*
X1302363Y-754885D1*
X971801Y-1005331D2*
X1026410D1*
X1044660Y-999154D1*
X1050837Y-993117D1*
X1056874Y-981044D1*
Y-968831D1*
X1050837Y-956758D1*
X1044660Y-950581D1*
X1026410Y-944544D1*
X971801D1*
Y-1072154D1*
X1014337Y-1005331D2*
X1056874Y-1072154D1*
X1156876D2*
Y-944685D1*
X1096090Y-1029617D1*
X1187199D1*
X917424Y-1262885D2*
Y-1135415D1*
X856637Y-1220348D1*
X947747D1*
X1011249Y-1262885D2*
X1072035Y-1135415D1*
X986962D1*
X1147751D2*
X1129501Y-1141452D1*
X1117288Y-1159702D1*
X1111251Y-1190025D1*
Y-1208275D1*
X1117288Y-1238598D1*
X1129501Y-1256848D1*
X1147751Y-1262885D1*
X1159824D1*
X1178074Y-1256848D1*
X1190147Y-1238598D1*
X1196324Y-1208275D1*
Y-1190025D1*
X1190147Y-1159702D1*
X1178074Y-1141452D1*
X1159824Y-1135415D1*
X1147751D1*
X1190147Y-1159702D2*
X1117288Y-1238598D1*
X1235540Y-1135275D2*
Y-1262885D1*
X1296326Y-1177812D2*
X1235540Y-1238598D1*
X1259826Y-1214312D2*
X1302363Y-1262885D1*
X1090215Y-1609867D2*
X1084179Y-1597794D1*
X1071965Y-1585581D1*
X1059892Y-1579544D1*
X1035606D1*
X1023392Y-1585581D1*
X1011319Y-1597794D1*
X1005142Y-1609867D1*
X999106Y-1628117D1*
Y-1658581D1*
X1005142Y-1676690D1*
X1011319Y-1688904D1*
X1023392Y-1700977D1*
X1035606Y-1707154D1*
X1059892D1*
X1071965Y-1700977D1*
X1084179Y-1688904D1*
X1090215Y-1676690D1*
X1129431Y-1603971D2*
X1141644Y-1597794D1*
X1159894Y-1579685D1*
Y-1707154D1*
X573641Y-1843502D2*
X585855Y-1837325D1*
X604105Y-1819215D1*
Y-1946685D1*
X679820Y-1819215D2*
X661570Y-1825252D1*
X649357Y-1843502D1*
X643320Y-1873825D1*
Y-1892075D1*
X649357Y-1922398D1*
X661570Y-1940648D1*
X679820Y-1946685D1*
X691893D1*
X710143Y-1940648D1*
X722216Y-1922398D1*
X728393Y-1892075D1*
Y-1873825D1*
X722216Y-1843502D1*
X710143Y-1825252D1*
X691893Y-1819215D1*
X679820D1*
X722216Y-1843502D2*
X649357Y-1922398D1*
X804109Y-1819215D2*
X785859Y-1825252D1*
X773646Y-1843502D1*
X767609Y-1873825D1*
Y-1892075D1*
X773646Y-1922398D1*
X785859Y-1940648D1*
X804109Y-1946685D1*
X816182D1*
X834432Y-1940648D1*
X846505Y-1922398D1*
X852682Y-1892075D1*
Y-1873825D1*
X846505Y-1843502D1*
X834432Y-1825252D1*
X816182Y-1819215D1*
X804109D1*
X846505Y-1843502D2*
X773646Y-1922398D1*
X891898Y-1861612D2*
Y-1922398D1*
X897934Y-1940508D1*
X910148Y-1946685D1*
X928398D1*
X940471Y-1940508D1*
X958721Y-1922398D1*
Y-1861612D2*
Y-1946685D1*
X1076973Y-1819075D2*
X997937D1*
Y-1946685D1*
Y-1879862D2*
X1046510D1*
X1251849Y-1819215D2*
X1318531D1*
X1282172Y-1867789D1*
X1300422D1*
X1312495Y-1873825D1*
X1318531Y-1879862D1*
X1324708Y-1898112D1*
Y-1910185D1*
X1318531Y-1928435D1*
X1306458Y-1940648D1*
X1288208Y-1946685D1*
X1269958D1*
X1251849Y-1940648D1*
X1245812Y-1934471D1*
X1239635Y-1922398D1*
X1436784Y-1819215D2*
X1376137D1*
X1370101Y-1873825D1*
X1376137Y-1867789D1*
X1394387Y-1861612D1*
X1412497D1*
X1430747Y-1867789D1*
X1442961Y-1879862D1*
X1448997Y-1898112D1*
Y-1910185D1*
X1442961Y-1928435D1*
X1430747Y-1940648D1*
X1412497Y-1946685D1*
X1394387D1*
X1376137Y-1940648D1*
X1370101Y-1934471D1*
X1363924Y-1922398D1*
X1488213Y-1819075D2*
X1536786Y-1946685D1*
X1585359Y-1819075D1*
X1389044Y400319D2*
X1516654D1*
Y442856D1*
X1510477Y461106D1*
X1498404Y473319D1*
X1486190Y479356D1*
X1468081Y485392D1*
X1437617D1*
X1419367Y479356D1*
X1407294Y473319D1*
X1395081Y461106D1*
X1389044Y442856D1*
Y400319D1*
X1419508Y530785D2*
X1413471D1*
X1401258Y536821D1*
X1395221Y542858D1*
X1389185Y555071D1*
Y579358D1*
X1395221Y591431D1*
X1401258Y597467D1*
X1413471Y603644D1*
X1425544D1*
X1437758Y597467D1*
X1455867Y585394D1*
X1516654Y524608D1*
Y609681D1*
X1008044Y433624D2*
X1135654D1*
Y476160D1*
X1129477Y494410D1*
X1117404Y506624D1*
X1105190Y512660D1*
X1087081Y518697D1*
X1056617D1*
X1038367Y512660D1*
X1026294Y506624D1*
X1014081Y494410D1*
X1008044Y476160D1*
Y433624D1*
X1032471Y557913D2*
X1026294Y570126D1*
X1008185Y588376D1*
X1135654D1*
X1927319Y156200D2*
X1981929D1*
X2000179Y162377D1*
X2006356Y168414D1*
X2012392Y180487D1*
Y192700D1*
X2006356Y204773D1*
X2000179Y210950D1*
X1981929Y216987D1*
X1927319D1*
Y89377D1*
X1969856Y156200D2*
X2012392Y89377D1*
X2124467Y216846D2*
X2063821D1*
X2057785Y162237D1*
X2063821Y168273D1*
X2082071Y174450D1*
X2100181D1*
X2118431Y168273D1*
X2130644Y156200D1*
X2136681Y137950D1*
Y125877D1*
X2130644Y107627D1*
X2118431Y95414D1*
X2100181Y89377D1*
X2082071D1*
X2063821Y95414D1*
X2057785Y101590D1*
X2051608Y113664D1*
X1901605Y-606502D2*
X1913818Y-600325D1*
X1932068Y-582215D1*
Y-709685D1*
X2007784Y-582215D2*
X1989534Y-588252D1*
X1977320Y-606502D1*
X1971284Y-636825D1*
Y-655075D1*
X1977320Y-685398D1*
X1989534Y-703648D1*
X2007784Y-709685D1*
X2019857D1*
X2038107Y-703648D1*
X2050180Y-685398D1*
X2056357Y-655075D1*
Y-636825D1*
X2050180Y-606502D1*
X2038107Y-588252D1*
X2019857Y-582215D1*
X2007784D1*
X2050180Y-606502D2*
X1977320Y-685398D1*
X2095572Y-582075D2*
Y-709685D1*
X2156359Y-624612D2*
X2095572Y-685398D1*
X2119859Y-661112D2*
X2162395Y-709685D1*
X-4472237Y480929D2*
Y401892D1*
X-4344627D1*
X-4411450D2*
Y450465D1*
X-4447810Y520144D2*
X-4453987Y532358D1*
X-4472096Y550608D1*
X-4344627D1*
X-3456748Y-62740D2*
X-3462925Y-50526D1*
X-3481035Y-32276D1*
X-3353565D1*
X-3450711Y13116D2*
X-3456748D1*
X-3468961Y19153D1*
X-3474998Y25189D1*
X-3481035Y37403D1*
Y61689D1*
X-3474998Y73763D1*
X-3468961Y79799D1*
X-3456748Y85976D1*
X-3444675D1*
X-3432461Y79799D1*
X-3414352Y67726D1*
X-3353565Y6939D1*
Y92013D1*
X-3481035Y204088D2*
Y143442D1*
X-3426425Y137405D1*
X-3432461Y143442D1*
X-3438638Y161692D1*
Y179801D1*
X-3432461Y198051D1*
X-3420388Y210265D1*
X-3402138Y216301D1*
X-3390065D1*
X-3371815Y210265D1*
X-3359602Y198051D1*
X-3353565Y179801D1*
Y161692D1*
X-3359602Y143442D1*
X-3365779Y137405D1*
X-3377852Y131228D1*
X-3438638Y255517D2*
X-3353565D1*
X-3414352D2*
X-3432602Y273767D1*
X-3438638Y285980D1*
Y304090D1*
X-3432602Y316304D1*
X-3414352Y322340D1*
X-3353565D1*
X-3414352D2*
X-3432602Y340590D1*
X-3438638Y352804D1*
Y370913D1*
X-3432602Y383127D1*
X-3414352Y389304D1*
X-3353565D1*
Y525806D2*
X-3481175Y477092D1*
X-3353565Y428519D1*
X-3396102Y446769D2*
Y507556D1*
X-3481175Y890951D2*
Y811914D1*
X-3353565D1*
X-3420388D2*
Y860487D1*
X-3481175Y930167D2*
X-3353565D1*
Y984917D1*
X-3359742Y1003167D1*
X-3365779Y1009203D1*
X-3377852Y1015240D1*
X-3396102D1*
X-3408315Y1009203D1*
X-3414352Y1003167D1*
X-3420388Y984917D1*
X-3426565Y1003167D1*
X-3432602Y1009203D1*
X-3444675Y1015240D1*
X-3456888D1*
X-3468961Y1009203D1*
X-3475138Y1003167D1*
X-3481175Y984917D1*
Y930167D1*
X-3420388D2*
Y984917D1*
X3584433Y-1590909D2*
D63*
Y-1386733D1*
X3506717Y-1590909D1*
X3429000Y-1386733D1*
Y-1590909D1*
X3647179Y-1386733D2*
X3656837Y-1396392D1*
X3666720Y-1386733D1*
X3656837Y-1376850D1*
X3647179Y-1386733D1*
X3656837Y-1454792D2*
Y-1590909D1*
X3846041Y-1386733D2*
Y-1590909D1*
Y-1483992D2*
X3826724Y-1464450D1*
X3807182Y-1454792D1*
X3777982D1*
X3758665Y-1464450D1*
X3739124Y-1483992D1*
X3729465Y-1513192D1*
Y-1532509D1*
X3739124Y-1561709D1*
X3758665Y-1581026D1*
X3777982Y-1590909D1*
X3807182D1*
X3826724Y-1581026D1*
X3846041Y-1561709D1*
X4106300Y-1386733D2*
Y-1590909D1*
X4222875D1*
X4285620Y-1513192D2*
X4402196D1*
Y-1493650D1*
X4392537Y-1474109D1*
X4382879Y-1464450D1*
X4363337Y-1454792D1*
X4334137D1*
X4314820Y-1464450D1*
X4295279Y-1483992D1*
X4285620Y-1513192D1*
Y-1532509D1*
X4295279Y-1561709D1*
X4314820Y-1581026D1*
X4334137Y-1590909D1*
X4363337D1*
X4382879Y-1581026D1*
X4402196Y-1561709D1*
X4464941Y-1454792D2*
X4523341Y-1590909D1*
X4581516Y-1454792D1*
X4644261Y-1513192D2*
X4760837D1*
Y-1493650D1*
X4751178Y-1474109D1*
X4741520Y-1464450D1*
X4721978Y-1454792D1*
X4692778D1*
X4673461Y-1464450D1*
X4653920Y-1483992D1*
X4644261Y-1513192D1*
Y-1532509D1*
X4653920Y-1561709D1*
X4673461Y-1581026D1*
X4692778Y-1590909D1*
X4721978D1*
X4741520Y-1581026D1*
X4760837Y-1561709D1*
X4823582Y-1386733D2*
Y-1590909D1*
M02*
